<?xml version="1.0" standalone="no"?>
<!DOCTYPE svg PUBLIC "-//W3C//DTD SVG 1.1//EN" "http://www.w3.org/Graphics/SVG/1.1/DTD/svg11.dtd" >
<svg xmlns="http://www.w3.org/2000/svg">
<defs>
  <font id="iconly" horiz-adv-x="1024">
    <font-face font-family="iconly"
      units-per-em="1024" ascent="896"
      descent="128" />
    <missing-glyph horiz-adv-x="0" />
    <glyph glyph-name="cart"
      unicode="&#xE000;"
      horiz-adv-x="930.9091" d="M83.502 459.776Q109.056 651.636 302.639 651.636H628.269Q821.852 651.636 847.406 459.776L890.8789999999999 133.9580000000001Q904.099 34.5380000000001 838.0489999999999 -40.9119999999999Q772.0019999999998 -116.3639999999999 671.6969999999999 -116.3639999999999H259.212Q158.906 -116.3639999999999 92.858 -40.9139999999999Q26.81 34.5360000000002 40.028 133.9580000000001zM152.716 450.56L109.242 124.742Q100.166 56.692 145.362 5.074Q190.604 -46.546 259.212 -46.546H671.698Q740.306 -46.546 785.548 5.074Q830.743 56.692 821.668 124.742L778.192 450.56Q760.692 581.818 628.269 581.818H302.64Q170.217 581.818 152.716 450.5599999999999zM616.726 523.636V663.273Q616.726 814.546 465.456 814.546Q314.182 814.546 314.182 663.273V523.636Q314.182 509.1609999999999 303.942 498.966Q293.748 488.7259999999999 279.272 488.7259999999999Q264.797 488.7259999999999 254.604 498.966Q244.364 509.1609999999999 244.364 523.636V663.273Q244.364 754.873 309.108 819.619Q373.853 884.363 465.454 884.363Q557.009 884.363 621.8009999999999 819.6179999999999Q686.5459999999999 754.8720000000001 686.5459999999999 663.271V523.634Q686.5459999999999 509.159 676.3059999999999 498.964Q666.1129999999999 488.724 651.636 488.724Q637.1619999999999 488.724 626.968 498.964Q616.728 509.159 616.728 523.634z" />
    <glyph glyph-name="cart-1"
      unicode="&#x63;&#x61;&#x72;&#x74;"
      horiz-adv-x="930.9091" d="M83.502 459.776Q109.056 651.636 302.639 651.636H628.269Q821.852 651.636 847.406 459.776L890.8789999999999 133.9580000000001Q904.099 34.5380000000001 838.0489999999999 -40.9119999999999Q772.0019999999998 -116.3639999999999 671.6969999999999 -116.3639999999999H259.212Q158.906 -116.3639999999999 92.858 -40.9139999999999Q26.81 34.5360000000002 40.028 133.9580000000001zM152.716 450.56L109.242 124.742Q100.166 56.692 145.362 5.074Q190.604 -46.546 259.212 -46.546H671.698Q740.306 -46.546 785.548 5.074Q830.743 56.692 821.668 124.742L778.192 450.56Q760.692 581.818 628.269 581.818H302.64Q170.217 581.818 152.716 450.5599999999999zM616.726 523.636V663.273Q616.726 814.546 465.456 814.546Q314.182 814.546 314.182 663.273V523.636Q314.182 509.1609999999999 303.942 498.966Q293.748 488.7259999999999 279.272 488.7259999999999Q264.797 488.7259999999999 254.604 498.966Q244.364 509.1609999999999 244.364 523.636V663.273Q244.364 754.873 309.108 819.619Q373.853 884.363 465.454 884.363Q557.009 884.363 621.8009999999999 819.6179999999999Q686.5459999999999 754.8720000000001 686.5459999999999 663.271V523.634Q686.5459999999999 509.159 676.3059999999999 498.964Q666.1129999999999 488.724 651.636 488.724Q637.1619999999999 488.724 626.968 498.964Q616.728 509.159 616.728 523.634z" />
    <glyph glyph-name="heart"
      unicode="&#xE001;"
      horiz-adv-x="1024" d="M98.63 256.93Q11.636 348.626 11.636 477.8819999999999Q11.636 607.1389999999999 98.63 698.8319999999999Q186.32 791.2719999999999 310.784 791.2719999999999Q427.567 791.2719999999999 512 709.865Q596.433 791.2729999999999 713.216 791.2729999999999Q837.678 791.2729999999999 925.37 698.833Q1012.364 607.185 1012.364 477.883Q1012.364 348.626 925.37 256.9310000000001L638.604 -45.29Q586.984 -99.7 512 -99.7Q437.015 -99.7 385.396 -45.2900000000001zM149.27 305.012L436.038 2.7919999999999Q466.99 -29.88 512 -29.88Q557.01 -29.88 587.962 2.795L874.729 305.015Q942.544 376.462 942.544 477.885Q942.544 579.307 874.7280000000001 650.755Q807.6550000000001 721.457 713.214 721.457Q618.7740000000001 721.457 551.701 650.754Q535.504 633.718 511.998 633.718Q488.4930000000001 633.718 472.2950000000001 650.7539999999999Q405.2230000000001 721.4559999999999 310.7820000000001 721.4559999999999Q216.3420000000001 721.4559999999999 149.269 650.7539999999999Q81.453 579.307 81.453 477.884Q81.453 376.462 149.2700000000001 305.0139999999999z" />
    <glyph glyph-name="heart-1"
      unicode="&#x68;&#x65;&#x61;&#x72;&#x74;"
      horiz-adv-x="1024" d="M98.63 256.93Q11.636 348.626 11.636 477.8819999999999Q11.636 607.1389999999999 98.63 698.8319999999999Q186.32 791.2719999999999 310.784 791.2719999999999Q427.567 791.2719999999999 512 709.865Q596.433 791.2729999999999 713.216 791.2729999999999Q837.678 791.2729999999999 925.37 698.833Q1012.364 607.185 1012.364 477.883Q1012.364 348.626 925.37 256.9310000000001L638.604 -45.29Q586.984 -99.7 512 -99.7Q437.015 -99.7 385.396 -45.2900000000001zM149.27 305.012L436.038 2.7919999999999Q466.99 -29.88 512 -29.88Q557.01 -29.88 587.962 2.795L874.729 305.015Q942.544 376.462 942.544 477.885Q942.544 579.307 874.7280000000001 650.755Q807.6550000000001 721.457 713.214 721.457Q618.7740000000001 721.457 551.701 650.754Q535.504 633.718 511.998 633.718Q488.4930000000001 633.718 472.2950000000001 650.7539999999999Q405.2230000000001 721.4559999999999 310.7820000000001 721.4559999999999Q216.3420000000001 721.4559999999999 149.269 650.7539999999999Q81.453 579.307 81.453 477.884Q81.453 376.462 149.2700000000001 305.0139999999999z" />
    <glyph glyph-name="user"
      unicode="&#xE002;"
      horiz-adv-x="869.6123" d="M175.158 626.5260000000001Q175.158 520.461 250.126 445.4940000000001Q325.093 370.5260000000001 431.158 370.5260000000001Q537.223 370.5260000000001 612.19 445.4940000000001Q687.158 520.461 687.158 626.5260000000001Q687.158 732.5910000000001 612.19 807.5590000000001Q537.2230000000001 882.5250000000001 431.158 882.5250000000001Q325.093 882.5250000000001 250.1250000000001 807.558Q175.158 732.5880000000001 175.158 626.5240000000001zM256 626.5260000000001Q256 714.106 299.762 757.922Q343.579 801.684 431.158 801.684Q503.7 801.684 555.008 750.376Q606.316 699.069 606.316 626.5260000000001Q606.316 553.984 555.008 502.676Q503.7 451.3680000000001 431.158 451.3680000000001Q256 451.368 256 626.5260000000001zM13.474 91.082Q13.474 196.932 113.124 232.502Q431.158 346.058 749.191 232.502Q848.8430000000001 196.9319999999999 848.8430000000001 91.082V20.212Q848.8430000000001 -46.242 798.667 -89.788Q748.437 -133.336 682.687 -123.904L631.217 -116.5739999999999Q431.159 -88.01 231.102 -116.5739999999999L179.632 -123.904Q113.882 -133.336 63.652 -89.789Q13.476 -46.241 13.476 20.211zM94.316 91.082V20.212Q94.316 -9.3240000000001 116.628 -28.726Q138.941 -48.074 168.206 -43.87L219.676 -36.54Q431.158 -6.3059999999999 642.641 -36.54L694.111 -43.87Q723.376 -48.074 745.689 -28.726Q768 -9.324 768 20.21V91.082Q768 139.912 722.028 156.3489999999999Q431.158 260.257 140.288 156.3489999999999Q94.316 139.964 94.316 91.0809999999999z" />
    <glyph glyph-name="user-1"
      unicode="&#x75;&#x73;&#x65;&#x72;"
      horiz-adv-x="869.6123" d="M175.158 626.5260000000001Q175.158 520.461 250.126 445.4940000000001Q325.093 370.5260000000001 431.158 370.5260000000001Q537.223 370.5260000000001 612.19 445.4940000000001Q687.158 520.461 687.158 626.5260000000001Q687.158 732.5910000000001 612.19 807.5590000000001Q537.2230000000001 882.5250000000001 431.158 882.5250000000001Q325.093 882.5250000000001 250.1250000000001 807.558Q175.158 732.5880000000001 175.158 626.5240000000001zM256 626.5260000000001Q256 714.106 299.762 757.922Q343.579 801.684 431.158 801.684Q503.7 801.684 555.008 750.376Q606.316 699.069 606.316 626.5260000000001Q606.316 553.984 555.008 502.676Q503.7 451.3680000000001 431.158 451.3680000000001Q256 451.368 256 626.5260000000001zM13.474 91.082Q13.474 196.932 113.124 232.502Q431.158 346.058 749.191 232.502Q848.8430000000001 196.9319999999999 848.8430000000001 91.082V20.212Q848.8430000000001 -46.242 798.667 -89.788Q748.437 -133.336 682.687 -123.904L631.217 -116.5739999999999Q431.159 -88.01 231.102 -116.5739999999999L179.632 -123.904Q113.882 -133.336 63.652 -89.789Q13.476 -46.241 13.476 20.211zM94.316 91.082V20.212Q94.316 -9.3240000000001 116.628 -28.726Q138.941 -48.074 168.206 -43.87L219.676 -36.54Q431.158 -6.3059999999999 642.641 -36.54L694.111 -43.87Q723.376 -48.074 745.689 -28.726Q768 -9.324 768 20.21V91.082Q768 139.912 722.028 156.3489999999999Q431.158 260.257 140.288 156.3489999999999Q94.316 139.964 94.316 91.0809999999999z" />
    <glyph glyph-name="chevron-down"
      unicode="&#xE003;"
      horiz-adv-x="1024" d="M244.544 548.4159999999999L509.888 321.024Q512 319.232 514.1120000000001 321.024L779.4560000000001 548.4159999999999Q794.4960000000001 561.408 814.3360000000001 559.8720000000001Q834.1760000000002 558.336 847.1040000000002 543.232Q860.0320000000002 528.128 858.4960000000002 508.288Q857.0240000000002 488.512 841.9200000000002 475.584L576.576 248.1280000000001Q512 192.768 447.4240000000001 248.1280000000001L182.08 475.584Q166.976 488.512 165.504 508.288Q163.968 528.1279999999999 176.896 543.232Q189.824 558.336 209.664 559.8720000000001Q229.504 561.408 244.544 548.4159999999999z" />
    <glyph glyph-name="chevron-down-1"
      unicode="&#x63;&#x68;&#x65;&#x76;&#x72;&#x6F;&#x6E;&#x5F;&#x64;&#x6F;&#x77;&#x6E;"
      horiz-adv-x="1024" d="M244.544 548.4159999999999L509.888 321.024Q512 319.232 514.1120000000001 321.024L779.4560000000001 548.4159999999999Q794.4960000000001 561.408 814.3360000000001 559.8720000000001Q834.1760000000002 558.336 847.1040000000002 543.232Q860.0320000000002 528.128 858.4960000000002 508.288Q857.0240000000002 488.512 841.9200000000002 475.584L576.576 248.1280000000001Q512 192.768 447.4240000000001 248.1280000000001L182.08 475.584Q166.976 488.512 165.504 508.288Q163.968 528.1279999999999 176.896 543.232Q189.824 558.336 209.664 559.8720000000001Q229.504 561.408 244.544 548.4159999999999z" />
    <glyph glyph-name="search"
      unicode="&#xE004;"
      horiz-adv-x="1024" d="M865.524 457.143Q865.524 280.43 740.547 155.453T438.8570000000001 30.476Q262.144 30.476 137.167 155.453T12.19 457.143Q12.19 633.856 137.167 758.833T438.8570000000001 883.81Q615.57 883.81 740.547 758.833T865.524 457.143zM792.381 457.143Q792.381 603.5749999999999 688.861 707.145Q585.29 810.667 438.856 810.667Q292.424 810.667 188.854 707.145Q85.333 603.575 85.333 457.143Q85.333 310.711 188.855 207.141Q292.425 103.621 438.8570000000001 103.621Q585.289 103.621 688.859 207.141Q792.379 310.711 792.379 457.1439999999999zM732.891 192.5129999999999L976.701 -51.297Q987.431 -61.977 987.431 -77.1410000000001Q987.431 -92.3070000000001 976.701 -102.9860000000001Q966.023 -113.714 950.858 -113.714T925.014 -102.9860000000001L681.204 140.8239999999999Q670.477 151.5019999999999 670.477 166.6669999999998T681.2049999999999 192.5109999999999Q691.8849999999999 203.2389999999998 707.049 203.2389999999998Q722.2139999999999 203.2389999999998 732.8919999999999 192.5109999999999z" />
    <glyph glyph-name="search-1"
      unicode="&#x73;&#x65;&#x61;&#x72;&#x63;&#x68;"
      horiz-adv-x="1024" d="M865.524 457.143Q865.524 280.43 740.547 155.453T438.8570000000001 30.476Q262.144 30.476 137.167 155.453T12.19 457.143Q12.19 633.856 137.167 758.833T438.8570000000001 883.81Q615.57 883.81 740.547 758.833T865.524 457.143zM792.381 457.143Q792.381 603.5749999999999 688.861 707.145Q585.29 810.667 438.856 810.667Q292.424 810.667 188.854 707.145Q85.333 603.575 85.333 457.143Q85.333 310.711 188.855 207.141Q292.425 103.621 438.8570000000001 103.621Q585.289 103.621 688.859 207.141Q792.379 310.711 792.379 457.1439999999999zM732.891 192.5129999999999L976.701 -51.297Q987.431 -61.977 987.431 -77.1410000000001Q987.431 -92.3070000000001 976.701 -102.9860000000001Q966.023 -113.714 950.858 -113.714T925.014 -102.9860000000001L681.204 140.8239999999999Q670.477 151.5019999999999 670.477 166.6669999999998T681.2049999999999 192.5109999999999Q691.8849999999999 203.2389999999998 707.049 203.2389999999998Q722.2139999999999 203.2389999999998 732.8919999999999 192.5109999999999z" />
    <glyph glyph-name="hum-burger"
      unicode="&#xE005;"
      horiz-adv-x="1024" d="M853.333 608H170.667Q157.397 608 148.053 617.387Q138.667 626.731 138.667 640Q138.667 653.27 148.053 662.613Q157.397 672 170.667 672H853.3330000000001Q866.6030000000001 672 875.9470000000001 662.613Q885.3330000000001 653.269 885.3330000000001 640Q885.3330000000001 626.73 875.9470000000001 617.387Q866.603 608 853.333 608zM853.333 352H170.667Q157.397 352 148.053 361.387Q138.667 370.731 138.667 384Q138.667 397.27 148.053 406.613Q157.397 416 170.667 416H853.3330000000001Q866.6030000000001 416 875.9470000000001 406.613Q885.3330000000001 397.269 885.3330000000001 384Q885.3330000000001 370.73 875.9470000000001 361.387Q866.603 352 853.333 352zM853.333 96H170.667Q157.397 96 148.053 105.3869999999999Q138.667 114.731 138.667 128Q138.667 141.27 148.053 150.6130000000001Q157.397 160 170.667 160H853.3330000000001Q866.6030000000001 160 875.9470000000001 150.6130000000001Q885.3330000000001 141.269 885.3330000000001 128Q885.3330000000001 114.73 875.9470000000001 105.3869999999999Q866.603 96 853.333 96z" />
    <glyph glyph-name="hum-burger-1"
      unicode="&#x68;&#x75;&#x6D;&#x5F;&#x62;&#x75;&#x72;&#x67;&#x65;&#x72;"
      horiz-adv-x="1024" d="M853.333 608H170.667Q157.397 608 148.053 617.387Q138.667 626.731 138.667 640Q138.667 653.27 148.053 662.613Q157.397 672 170.667 672H853.3330000000001Q866.6030000000001 672 875.9470000000001 662.613Q885.3330000000001 653.269 885.3330000000001 640Q885.3330000000001 626.73 875.9470000000001 617.387Q866.603 608 853.333 608zM853.333 352H170.667Q157.397 352 148.053 361.387Q138.667 370.731 138.667 384Q138.667 397.27 148.053 406.613Q157.397 416 170.667 416H853.3330000000001Q866.6030000000001 416 875.9470000000001 406.613Q885.3330000000001 397.269 885.3330000000001 384Q885.3330000000001 370.73 875.9470000000001 361.387Q866.603 352 853.333 352zM853.333 96H170.667Q157.397 96 148.053 105.3869999999999Q138.667 114.731 138.667 128Q138.667 141.27 148.053 150.6130000000001Q157.397 160 170.667 160H853.3330000000001Q866.6030000000001 160 875.9470000000001 150.6130000000001Q885.3330000000001 141.269 885.3330000000001 128Q885.3330000000001 114.73 875.9470000000001 105.3869999999999Q866.603 96 853.333 96z" />
    <glyph glyph-name="home"
      unicode="&#xE006;"
      horiz-adv-x="1024" d="M26.055 434.347Q26.055 543.46 111.73 611.044L372.452 816.924Q512 927.06 651.548 816.924L912.27 611.044Q997.945 543.46 997.945 434.347V123.2770000000001Q997.945 29.98 931.955 -35.953Q866.02 -101.9449999999999 772.722 -101.9449999999999H701.612Q618.6669999999999 -101.9449999999999 618.6669999999999 -18.9449999999999V123.28Q618.6669999999999 182.502 559.387 182.502H464.612Q405.332 182.502 405.332 123.28V-18.942Q405.332 -101.942 322.389 -101.942H251.277Q157.979 -101.942 92.045 -35.952Q26.055 29.982 26.055 123.28zM97.165 434.347V123.2770000000001Q97.165 -30.833 251.278 -30.833H322.388Q334.222 -30.833 334.222 -18.943V123.2770000000001Q334.222 253.6110000000001 464.612 253.6110000000001H559.3879999999999Q689.7779999999999 253.6110000000001 689.7779999999999 123.2790000000001V-18.9429999999999Q689.7779999999999 -30.8329999999999 701.6109999999999 -30.8329999999999H772.7229999999998Q926.8349999999998 -30.8329999999999 926.8349999999998 123.2790000000001V434.3490000000001Q926.8349999999998 508.9860000000001 868.2389999999998 555.2370000000001L607.46 761.116Q512 836.494 416.5400000000001 761.116L155.7620000000001 555.236Q97.1660000000001 508.986 97.1660000000001 434.346z" />
    <glyph glyph-name="home-1"
      unicode="&#x68;&#x6F;&#x6D;&#x65;"
      horiz-adv-x="1024" d="M26.055 434.347Q26.055 543.46 111.73 611.044L372.452 816.924Q512 927.06 651.548 816.924L912.27 611.044Q997.945 543.46 997.945 434.347V123.2770000000001Q997.945 29.98 931.955 -35.953Q866.02 -101.9449999999999 772.722 -101.9449999999999H701.612Q618.6669999999999 -101.9449999999999 618.6669999999999 -18.9449999999999V123.28Q618.6669999999999 182.502 559.387 182.502H464.612Q405.332 182.502 405.332 123.28V-18.942Q405.332 -101.942 322.389 -101.942H251.277Q157.979 -101.942 92.045 -35.952Q26.055 29.982 26.055 123.28zM97.165 434.347V123.2770000000001Q97.165 -30.833 251.278 -30.833H322.388Q334.222 -30.833 334.222 -18.943V123.2770000000001Q334.222 253.6110000000001 464.612 253.6110000000001H559.3879999999999Q689.7779999999999 253.6110000000001 689.7779999999999 123.2790000000001V-18.9429999999999Q689.7779999999999 -30.8329999999999 701.6109999999999 -30.8329999999999H772.7229999999998Q926.8349999999998 -30.8329999999999 926.8349999999998 123.2790000000001V434.3490000000001Q926.8349999999998 508.9860000000001 868.2389999999998 555.2370000000001L607.46 761.116Q512 836.494 416.5400000000001 761.116L155.7620000000001 555.236Q97.1660000000001 508.986 97.1660000000001 434.346z" />
    <glyph glyph-name="category"
      unicode="&#xE007;"
      horiz-adv-x="963.7647" d="M180.706 853.293H281.118Q348.642 853.293 396.468 805.527Q444.235 757.76 444.235 690.177V589.8240000000001Q444.235 522.24 396.469 474.414Q348.641 426.647 281.117 426.647H180.706Q113.122 426.647 65.356 474.413Q17.589 522.24 17.589 589.823V690.177Q17.589 853.294 180.705 853.294zM180.706 778.059Q92.883 778.059 92.883 690.175V589.823Q92.883 553.381 118.603 527.66Q144.323 501.9399999999999 180.706 501.9399999999999H281.118Q317.5 501.9399999999999 343.221 527.66Q368.9410000000001 553.382 368.9410000000001 589.824V690.1759999999999Q368.9410000000001 778.059 281.1190000000001 777.999zM180.706 351.351H281.118Q348.642 351.351 396.468 303.5850000000001Q444.235 255.818 444.235 188.235V87.822Q444.235 -75.295 281.118 -75.295H180.706Q113.122 -75.295 65.356 -27.529Q17.589 20.298 17.589 87.821V188.236Q17.589 351.353 180.705 351.353zM180.706 276.057Q144.324 276.057 118.603 250.337Q92.883 224.617 92.883 188.234V87.822Q92.883 51.4400000000001 118.603 25.72T180.706 0H281.118Q368.941 0 368.941 87.823V188.235Q368.941 276.058 281.119 276.058zM682.646 853.292H783.06Q946.176 853.292 946.176 690.1750000000001V589.8230000000001Q946.176 522.239 898.4089999999999 474.413Q850.6419999999998 426.646 783.0589999999999 426.646H682.646Q519.528 426.646 519.528 589.823V690.1759999999999Q519.528 757.76 567.294 805.526Q615.121 853.353 682.644 853.293zM682.646 778.058Q594.824 778.058 594.824 690.174V589.822Q594.824 501.939 682.6469999999999 501.939H783.06Q870.882 501.939 870.882 589.8230000000001V690.1759999999999Q870.882 726.558 845.1619999999999 752.279Q819.44 778 783.058 778zM682.646 351.35H783.06Q850.6429999999999 351.35 898.41 303.5840000000001Q946.176 255.817 946.176 188.234V87.821Q946.176 20.297 898.4089999999999 -27.529Q850.6419999999998 -75.296 783.0589999999999 -75.296H682.646Q615.122 -75.296 567.2959999999999 -27.5300000000001Q519.5279999999999 20.2969999999999 519.5279999999999 87.8199999999999V188.236Q519.5279999999999 255.82 567.2939999999999 303.586Q615.1209999999999 351.3530000000001 682.6439999999999 351.3530000000001zM682.646 276.0560000000001Q646.266 276.0560000000001 620.544 250.336Q594.824 224.616 594.824 188.2330000000001V87.821Q594.824 51.4390000000001 620.544 25.7190000000001T682.647 0H783.06Q870.882 0 870.882 87.823V188.235Q870.882 276.058 783.059 276.058z" />
    <glyph glyph-name="category-1"
      unicode="&#x63;&#x61;&#x74;&#x65;&#x67;&#x6F;&#x72;&#x79;"
      horiz-adv-x="963.7647" d="M180.706 853.293H281.118Q348.642 853.293 396.468 805.527Q444.235 757.76 444.235 690.177V589.8240000000001Q444.235 522.24 396.469 474.414Q348.641 426.647 281.117 426.647H180.706Q113.122 426.647 65.356 474.413Q17.589 522.24 17.589 589.823V690.177Q17.589 853.294 180.705 853.294zM180.706 778.059Q92.883 778.059 92.883 690.175V589.823Q92.883 553.381 118.603 527.66Q144.323 501.9399999999999 180.706 501.9399999999999H281.118Q317.5 501.9399999999999 343.221 527.66Q368.9410000000001 553.382 368.9410000000001 589.824V690.1759999999999Q368.9410000000001 778.059 281.1190000000001 777.999zM180.706 351.351H281.118Q348.642 351.351 396.468 303.5850000000001Q444.235 255.818 444.235 188.235V87.822Q444.235 -75.295 281.118 -75.295H180.706Q113.122 -75.295 65.356 -27.529Q17.589 20.298 17.589 87.821V188.236Q17.589 351.353 180.705 351.353zM180.706 276.057Q144.324 276.057 118.603 250.337Q92.883 224.617 92.883 188.234V87.822Q92.883 51.4400000000001 118.603 25.72T180.706 0H281.118Q368.941 0 368.941 87.823V188.235Q368.941 276.058 281.119 276.058zM682.646 853.292H783.06Q946.176 853.292 946.176 690.1750000000001V589.8230000000001Q946.176 522.239 898.4089999999999 474.413Q850.6419999999998 426.646 783.0589999999999 426.646H682.646Q519.528 426.646 519.528 589.823V690.1759999999999Q519.528 757.76 567.294 805.526Q615.121 853.353 682.644 853.293zM682.646 778.058Q594.824 778.058 594.824 690.174V589.822Q594.824 501.939 682.6469999999999 501.939H783.06Q870.882 501.939 870.882 589.8230000000001V690.1759999999999Q870.882 726.558 845.1619999999999 752.279Q819.44 778 783.058 778zM682.646 351.35H783.06Q850.6429999999999 351.35 898.41 303.5840000000001Q946.176 255.817 946.176 188.234V87.821Q946.176 20.297 898.4089999999999 -27.529Q850.6419999999998 -75.296 783.0589999999999 -75.296H682.646Q615.122 -75.296 567.2959999999999 -27.5300000000001Q519.5279999999999 20.2969999999999 519.5279999999999 87.8199999999999V188.236Q519.5279999999999 255.82 567.2939999999999 303.586Q615.1209999999999 351.3530000000001 682.6439999999999 351.3530000000001zM682.646 276.0560000000001Q646.266 276.0560000000001 620.544 250.336Q594.824 224.616 594.824 188.2330000000001V87.821Q594.824 51.4390000000001 620.544 25.7190000000001T682.647 0H783.06Q870.882 0 870.882 87.823V188.235Q870.882 276.058 783.059 276.058z" />
    <glyph glyph-name="close-circle"
      unicode="&#xE008;"
      horiz-adv-x="1024" d="M512 842.65Q702.0029999999999 842.65 836.3 708.3Q970.65 574.004 970.65 384Q970.65 193.9970000000001 836.3 59.648Q702.004 -74.65 512 -74.65Q321.997 -74.65 187.648 59.648Q53.35 193.9980000000001 53.35 384Q53.3 574.0029999999999 187.648 708.3Q321.998 842.65 512 842.65zM512 778.65Q348.5180000000001 778.65 232.9100000000001 663.09Q117.35 547.483 117.35 384Q117.35 220.518 232.91 104.9100000000001Q348.517 -10.65 512 -10.65Q675.482 -10.65 791.04 104.9100000000001Q906.65 220.5170000000001 906.65 384Q906.65 547.482 791.04 663.0899999999999Q675.482 778.65 512 778.65zM404.07 310.938L585.062 491.98Q594.432 501.35 607.692 501.35Q620.954 501.35 630.322 491.98Q639.692 482.61 639.692 469.35T630.322 446.7200000000001L449.332 265.677Q439.91 256.307 426.702 256.307Q413.44 256.307 404.07 265.677Q394.7 275.0470000000001 394.7 288.307T404.07 310.937zM449.33 491.981L630.324 310.9400000000001Q639.694 301.5700000000001 639.694 288.3100000000001Q639.694 275.048 630.324 265.6800000000001Q620.954 256.3100000000001 607.694 256.3100000000001T585.064 265.6800000000001L404.07 446.7200000000001Q394.7 456.09 394.7 469.35T404.07 491.98Q413.44 501.35 426.7 501.35Q439.91 501.35 449.33 491.98z" />
    <glyph glyph-name="close-circle-1"
      unicode="&#x63;&#x6C;&#x6F;&#x73;&#x65;&#x5F;&#x63;&#x69;&#x72;&#x63;&#x6C;&#x65;"
      horiz-adv-x="1024" d="M512 842.65Q702.0029999999999 842.65 836.3 708.3Q970.65 574.004 970.65 384Q970.65 193.9970000000001 836.3 59.648Q702.004 -74.65 512 -74.65Q321.997 -74.65 187.648 59.648Q53.35 193.9980000000001 53.35 384Q53.3 574.0029999999999 187.648 708.3Q321.998 842.65 512 842.65zM512 778.65Q348.5180000000001 778.65 232.9100000000001 663.09Q117.35 547.483 117.35 384Q117.35 220.518 232.91 104.9100000000001Q348.517 -10.65 512 -10.65Q675.482 -10.65 791.04 104.9100000000001Q906.65 220.5170000000001 906.65 384Q906.65 547.482 791.04 663.0899999999999Q675.482 778.65 512 778.65zM404.07 310.938L585.062 491.98Q594.432 501.35 607.692 501.35Q620.954 501.35 630.322 491.98Q639.692 482.61 639.692 469.35T630.322 446.7200000000001L449.332 265.677Q439.91 256.307 426.702 256.307Q413.44 256.307 404.07 265.677Q394.7 275.0470000000001 394.7 288.307T404.07 310.937zM449.33 491.981L630.324 310.9400000000001Q639.694 301.5700000000001 639.694 288.3100000000001Q639.694 275.048 630.324 265.6800000000001Q620.954 256.3100000000001 607.694 256.3100000000001T585.064 265.6800000000001L404.07 446.7200000000001Q394.7 456.09 394.7 469.35T404.07 491.98Q413.44 501.35 426.7 501.35Q439.91 501.35 449.33 491.98z" />
    <glyph glyph-name="fill-heart"
      unicode="&#xE009;"
      horiz-adv-x="1024" d="M156.288 268.2240000000001L419.136 -8.8319999999999C469.632 -62.0159999999998 554.368 -62.0159999999998 604.864 -8.8319999999999L867.712 268.2240000000002C962.304 367.9360000000002 962.304 529.5360000000002 867.712 629.2480000000002C773.12 728.8960000000002 619.776 728.8960000000002 525.184 629.2480000000002C518.016 621.6960000000001 505.984 621.6960000000001 498.816 629.2480000000002C404.224 728.8960000000002 250.88 728.8960000000002 156.288 629.2480000000002C61.696 529.5360000000002 61.696 367.9360000000002 156.288 268.2240000000002zM133.056 246.2080000000001Q53.312 330.24 53.312 448.704Q53.312 567.232 133.056 651.264Q213.504 736 327.552 736Q434.624 736 512 661.376Q589.376 736 696.448 736Q810.56 736 890.944 651.264Q970.688 567.232 970.688 448.704Q970.688 330.24 890.944 246.208L628.096 -30.848Q580.736 -80.7039999999999 512 -80.7039999999999T395.904 -30.848zM179.52 290.2400000000001L442.3680000000001 13.1840000000002Q470.784 -16.7039999999998 512 -16.7039999999998Q553.28 -16.7039999999998 581.6320000000001 13.1840000000002L844.48 290.24Q994.88 448.704 844.48 607.168Q783.04 672 696.448 672Q609.856 672 548.4159999999999 607.168Q533.568 591.552 511.9999999999999 591.552Q490.432 591.552 475.5839999999999 607.168Q414.144 672 327.552 672Q240.9600000000001 672 179.52 607.168Q29.12 448.704 179.52 290.24z" />
    <glyph glyph-name="fill-heart-1"
      unicode="&#x66;&#x69;&#x6C;&#x6C;&#x5F;&#x68;&#x65;&#x61;&#x72;&#x74;"
      horiz-adv-x="1024" d="M156.288 268.2240000000001L419.136 -8.8319999999999C469.632 -62.0159999999998 554.368 -62.0159999999998 604.864 -8.8319999999999L867.712 268.2240000000002C962.304 367.9360000000002 962.304 529.5360000000002 867.712 629.2480000000002C773.12 728.8960000000002 619.776 728.8960000000002 525.184 629.2480000000002C518.016 621.6960000000001 505.984 621.6960000000001 498.816 629.2480000000002C404.224 728.8960000000002 250.88 728.8960000000002 156.288 629.2480000000002C61.696 529.5360000000002 61.696 367.9360000000002 156.288 268.2240000000002zM133.056 246.2080000000001Q53.312 330.24 53.312 448.704Q53.312 567.232 133.056 651.264Q213.504 736 327.552 736Q434.624 736 512 661.376Q589.376 736 696.448 736Q810.56 736 890.944 651.264Q970.688 567.232 970.688 448.704Q970.688 330.24 890.944 246.208L628.096 -30.848Q580.736 -80.7039999999999 512 -80.7039999999999T395.904 -30.848zM179.52 290.2400000000001L442.3680000000001 13.1840000000002Q470.784 -16.7039999999998 512 -16.7039999999998Q553.28 -16.7039999999998 581.6320000000001 13.1840000000002L844.48 290.24Q994.88 448.704 844.48 607.168Q783.04 672 696.448 672Q609.856 672 548.4159999999999 607.168Q533.568 591.552 511.9999999999999 591.552Q490.432 591.552 475.5839999999999 607.168Q414.144 672 327.552 672Q240.9600000000001 672 179.52 607.168Q29.12 448.704 179.52 290.24z" />
    <glyph glyph-name="chevron-right"
      unicode="&#xE00A;"
      horiz-adv-x="512" d="M74.97 -12.946L399.9450000000001 366.154Q415.2320000000001 384 399.9450000000001 401.847L74.97 780.947Q69.12 787.822 66.267 796.453Q63.415 805.083 64.147 814.153Q64.805 823.223 68.974 831.343Q73.07 839.461 79.944 845.385Q86.894 851.31 95.524 854.089Q104.154 856.941 113.224 856.282Q122.294 855.552 130.414 851.455Q138.534 847.285 144.457 840.41L469.357 461.385Q535.625 384.0000000000001 469.357 306.615L144.457 -72.4110000000001Q138.533 -79.288 130.414 -83.4570000000001Q122.294 -87.5530000000001 113.224 -88.2110000000001Q104.154 -88.9430000000001 95.524 -86.0910000000001Q86.894 -83.3110000000001 79.944 -77.3860000000001Q73.07 -71.4620000000001 68.974 -63.3430000000001Q64.804 -55.2230000000001 64.146 -46.153Q63.416 -37.083 66.266 -28.453Q69.12 -19.823 74.971 -12.947z" />
    <glyph glyph-name="chevron-right-1"
      unicode="&#x63;&#x68;&#x65;&#x76;&#x72;&#x6F;&#x6E;&#x5F;&#x72;&#x69;&#x67;&#x68;&#x74;"
      horiz-adv-x="512" d="M74.97 -12.946L399.9450000000001 366.154Q415.2320000000001 384 399.9450000000001 401.847L74.97 780.947Q69.12 787.822 66.267 796.453Q63.415 805.083 64.147 814.153Q64.805 823.223 68.974 831.343Q73.07 839.461 79.944 845.385Q86.894 851.31 95.524 854.089Q104.154 856.941 113.224 856.282Q122.294 855.552 130.414 851.455Q138.534 847.285 144.457 840.41L469.357 461.385Q535.625 384.0000000000001 469.357 306.615L144.457 -72.4110000000001Q138.533 -79.288 130.414 -83.4570000000001Q122.294 -87.5530000000001 113.224 -88.2110000000001Q104.154 -88.9430000000001 95.524 -86.0910000000001Q86.894 -83.3110000000001 79.944 -77.3860000000001Q73.07 -71.4620000000001 68.974 -63.3430000000001Q64.804 -55.2230000000001 64.146 -46.153Q63.416 -37.083 66.266 -28.453Q69.12 -19.823 74.971 -12.947z" />
    <glyph glyph-name="fill-star"
      unicode="&#xE00B;"
      horiz-adv-x="1024" d="M436.81 722.2860000000001C470.894 778.971 553.106 778.971 587.19 722.2860000000001L669.403 585.7280000000001C681.618 565.394 701.659 550.838 724.773 545.498L880.0550000000001 509.513C944.4950000000002 494.593 969.875 416.403 926.501 366.4459999999999L822.0540000000001 246.126C806.474 228.206 798.8670000000001 204.654 800.9140000000001 181.029L814.666 22.234C820.3710000000001 -43.6659999999999 753.884 -92.016 692.956 -66.1959999999999L546.23 -4.022C524.36 5.2679999999999 499.64 5.2679999999999 477.77 -4.022L331.0450000000001 -66.192C270.1170000000001 -92.0120000000001 203.6300000000001 -43.665 209.3350000000001 22.236L223.0850000000001 181.03C225.1350000000001 204.654 217.5270000000001 228.206 201.9470000000001 246.126L97.5 366.4460000000001C54.126 416.4020000000001 79.506 494.592 143.945 509.513L299.227 545.5C322.341 550.8399999999999 342.382 565.394 354.597 585.7280000000001L436.809 722.2860000000001zM389.778 750.592Q431.398 819.64 512 819.64Q592.603 819.64 634.222 750.592L716.362 614.034Q723.602 602.039 737.134 598.894L892.416 562.981Q970.971 544.769 995.913 468.115Q1020.783 391.3880000000001 967.973 330.535L863.45 210.138Q854.3100000000001 199.605 855.552 185.7080000000001L869.302 26.9880000000001Q876.2520000000001 -53.396 811.082 -100.7919999999999Q745.838 -148.1889999999998 671.598 -116.665L524.873 -54.49Q512 -49.08 499.1270000000001 -54.5650000000001L352.4020000000001 -116.663Q278.1620000000001 -148.1869999999999 212.9190000000001 -100.791Q147.674 -53.3950000000001 154.696 26.9889999999999L168.446 185.709Q169.69 199.606 160.548 210.1389999999999L56.026 330.5320000000001Q3.216 391.386 28.086 468.1120000000001Q53.028 544.767 131.583 562.98L286.865 598.894Q300.397 602.039 307.6380000000001 614.0340000000001zM483.768 693.979L401.6280000000001 557.421Q370.468 505.6360000000001 311.588 492.0310000000001L156.306 456.0450000000001Q138.24 451.8750000000001 132.462 434.1750000000001Q126.682 416.4750000000001 138.898 402.4310000000001L243.346 282.1110000000001Q282.99 236.4710000000001 277.796 176.2730000000002L263.974 17.48Q262.364 -1.097 277.432 -11.995Q292.5 -22.967 309.616 -15.653L456.34 46.519Q512.002 70.069 567.664 46.519L714.3879999999999 -15.654Q731.5039999999999 -22.968 746.5709999999999 -11.996Q761.6379999999999 -1.098 760.0279999999999 17.48L746.204 176.274Q741.011 236.471 780.654 282.112L885.104 402.432Q897.3180000000001 416.475 891.539 434.176Q885.761 451.8759999999999 867.6949999999999 456.0459999999999L712.41 492.032Q653.53 505.637 622.3729999999999 557.422L540.233 693.9789999999999Q530.578 709.924 511.9999999999999 709.924Q493.422 709.924 483.7669999999999 693.978z" />
    <glyph glyph-name="fill-star-1"
      unicode="&#x66;&#x69;&#x6C;&#x6C;&#x5F;&#x73;&#x74;&#x61;&#x72;"
      horiz-adv-x="1024" d="M436.81 722.2860000000001C470.894 778.971 553.106 778.971 587.19 722.2860000000001L669.403 585.7280000000001C681.618 565.394 701.659 550.838 724.773 545.498L880.0550000000001 509.513C944.4950000000002 494.593 969.875 416.403 926.501 366.4459999999999L822.0540000000001 246.126C806.474 228.206 798.8670000000001 204.654 800.9140000000001 181.029L814.666 22.234C820.3710000000001 -43.6659999999999 753.884 -92.016 692.956 -66.1959999999999L546.23 -4.022C524.36 5.2679999999999 499.64 5.2679999999999 477.77 -4.022L331.0450000000001 -66.192C270.1170000000001 -92.0120000000001 203.6300000000001 -43.665 209.3350000000001 22.236L223.0850000000001 181.03C225.1350000000001 204.654 217.5270000000001 228.206 201.9470000000001 246.126L97.5 366.4460000000001C54.126 416.4020000000001 79.506 494.592 143.945 509.513L299.227 545.5C322.341 550.8399999999999 342.382 565.394 354.597 585.7280000000001L436.809 722.2860000000001zM389.778 750.592Q431.398 819.64 512 819.64Q592.603 819.64 634.222 750.592L716.362 614.034Q723.602 602.039 737.134 598.894L892.416 562.981Q970.971 544.769 995.913 468.115Q1020.783 391.3880000000001 967.973 330.535L863.45 210.138Q854.3100000000001 199.605 855.552 185.7080000000001L869.302 26.9880000000001Q876.2520000000001 -53.396 811.082 -100.7919999999999Q745.838 -148.1889999999998 671.598 -116.665L524.873 -54.49Q512 -49.08 499.1270000000001 -54.5650000000001L352.4020000000001 -116.663Q278.1620000000001 -148.1869999999999 212.9190000000001 -100.791Q147.674 -53.3950000000001 154.696 26.9889999999999L168.446 185.709Q169.69 199.606 160.548 210.1389999999999L56.026 330.5320000000001Q3.216 391.386 28.086 468.1120000000001Q53.028 544.767 131.583 562.98L286.865 598.894Q300.397 602.039 307.6380000000001 614.0340000000001zM483.768 693.979L401.6280000000001 557.421Q370.468 505.6360000000001 311.588 492.0310000000001L156.306 456.0450000000001Q138.24 451.8750000000001 132.462 434.1750000000001Q126.682 416.4750000000001 138.898 402.4310000000001L243.346 282.1110000000001Q282.99 236.4710000000001 277.796 176.2730000000002L263.974 17.48Q262.364 -1.097 277.432 -11.995Q292.5 -22.967 309.616 -15.653L456.34 46.519Q512.002 70.069 567.664 46.519L714.3879999999999 -15.654Q731.5039999999999 -22.968 746.5709999999999 -11.996Q761.6379999999999 -1.098 760.0279999999999 17.48L746.204 176.274Q741.011 236.471 780.654 282.112L885.104 402.432Q897.3180000000001 416.475 891.539 434.176Q885.761 451.8759999999999 867.6949999999999 456.0459999999999L712.41 492.032Q653.53 505.637 622.3729999999999 557.422L540.233 693.9789999999999Q530.578 709.924 511.9999999999999 709.924Q493.422 709.924 483.7669999999999 693.978z" />
    <glyph glyph-name="line-trash"
      unicode="&#xE00C;"
      horiz-adv-x="819.2" d="M66.014 546.27Q24.508 601.634 55.434 663.4839999999999Q86.357 725.334 155.512 725.334H663.688Q732.843 725.334 763.768 663.4839999999999Q794.692 601.634 753.186 546.27Q716.8 497.8 716.8 437.11V145.067Q716.8 -71.133 500.6 -71.133H318.6Q229.035 -71.133 165.683 -7.783Q102.4 55.501 102.4 145.067V437.11Q102.4 497.8 66.014 546.27zM120.627 587.23Q170.667 520.5329999999999 170.667 437.11V145.067Q170.667 -2.867 318.601 -2.867H500.601Q648.534 -2.867 648.534 145.067V437.11Q648.534 520.533 698.574 587.23Q714.7539999999999 608.802 702.67 632.9680000000001Q690.654 657.068 663.6899999999999 657.068H155.5099999999999Q128.5459999999999 657.068 116.53 632.9680000000001Q104.448 608.802 120.627 587.23zM466.467 190.5999999999999V463.668Q466.467 477.798 476.501 487.766Q486.469 497.802 500.601 497.802Q514.731 497.802 524.767 487.767Q534.734 477.8 534.734 463.669V190.6Q534.734 176.4 524.767 166.434Q514.7320000000001 156.467 500.6010000000001 156.467Q486.4690000000001 156.467 476.501 166.434Q466.467 176.401 466.467 190.601zM284.467 190.5999999999999V463.668Q284.467 477.798 294.434 487.766Q304.4700000000001 497.8 318.6 497.8Q332.7320000000001 497.8 342.7000000000001 487.765Q352.7340000000001 477.798 352.7340000000001 463.667V190.6Q352.7340000000001 176.4 342.699 166.434Q332.731 156.467 318.599 156.467Q304.469 156.467 294.433 166.434Q284.466 176.401 284.466 190.601zM559.24 680.415L534.528 754.689Q521.558 793.601 480.528 793.601H338.6720000000001Q297.6450000000001 793.601 284.6740000000001 754.689L259.961 680.415Q255.455 666.965 242.826 660.685Q230.1960000000001 654.337 216.748 658.843Q203.368 663.28 197.018 675.909Q190.67 688.607 195.1750000000001 701.987L219.9550000000001 776.261Q248.4920000000001 861.8679999999999 338.6720000000001 861.8679999999999H480.532Q570.712 861.8679999999999 599.2470000000001 776.261L624.027 701.987Q628.465 688.607 622.1840000000001 675.909Q615.8360000000001 663.279 602.4540000000001 658.843Q589.0070000000001 654.337 576.3770000000001 660.6859999999999Q563.7470000000001 666.966 559.2420000000001 680.4159999999999z" />
    <glyph glyph-name="line-trash-1"
      unicode="&#x6C;&#x69;&#x6E;&#x65;&#x5F;&#x74;&#x72;&#x61;&#x73;&#x68;"
      horiz-adv-x="819.2" d="M66.014 546.27Q24.508 601.634 55.434 663.4839999999999Q86.357 725.334 155.512 725.334H663.688Q732.843 725.334 763.768 663.4839999999999Q794.692 601.634 753.186 546.27Q716.8 497.8 716.8 437.11V145.067Q716.8 -71.133 500.6 -71.133H318.6Q229.035 -71.133 165.683 -7.783Q102.4 55.501 102.4 145.067V437.11Q102.4 497.8 66.014 546.27zM120.627 587.23Q170.667 520.5329999999999 170.667 437.11V145.067Q170.667 -2.867 318.601 -2.867H500.601Q648.534 -2.867 648.534 145.067V437.11Q648.534 520.533 698.574 587.23Q714.7539999999999 608.802 702.67 632.9680000000001Q690.654 657.068 663.6899999999999 657.068H155.5099999999999Q128.5459999999999 657.068 116.53 632.9680000000001Q104.448 608.802 120.627 587.23zM466.467 190.5999999999999V463.668Q466.467 477.798 476.501 487.766Q486.469 497.802 500.601 497.802Q514.731 497.802 524.767 487.767Q534.734 477.8 534.734 463.669V190.6Q534.734 176.4 524.767 166.434Q514.7320000000001 156.467 500.6010000000001 156.467Q486.4690000000001 156.467 476.501 166.434Q466.467 176.401 466.467 190.601zM284.467 190.5999999999999V463.668Q284.467 477.798 294.434 487.766Q304.4700000000001 497.8 318.6 497.8Q332.7320000000001 497.8 342.7000000000001 487.765Q352.7340000000001 477.798 352.7340000000001 463.667V190.6Q352.7340000000001 176.4 342.699 166.434Q332.731 156.467 318.599 156.467Q304.469 156.467 294.433 166.434Q284.466 176.401 284.466 190.601zM559.24 680.415L534.528 754.689Q521.558 793.601 480.528 793.601H338.6720000000001Q297.6450000000001 793.601 284.6740000000001 754.689L259.961 680.415Q255.455 666.965 242.826 660.685Q230.1960000000001 654.337 216.748 658.843Q203.368 663.28 197.018 675.909Q190.67 688.607 195.1750000000001 701.987L219.9550000000001 776.261Q248.4920000000001 861.8679999999999 338.6720000000001 861.8679999999999H480.532Q570.712 861.8679999999999 599.2470000000001 776.261L624.027 701.987Q628.465 688.607 622.1840000000001 675.909Q615.8360000000001 663.279 602.4540000000001 658.843Q589.0070000000001 654.337 576.3770000000001 660.6859999999999Q563.7470000000001 666.966 559.2420000000001 680.4159999999999z" />
    <glyph glyph-name="circle-minus"
      unicode="&#xE00D;"
      horiz-adv-x="1024" d="M53.312 384C53.312 637.312 258.688 842.688 512 842.688C765.312 842.688 970.688 637.312 970.688 384C970.688 130.688 765.312 -74.688 512 -74.688C258.688 -74.688 53.312 130.688 53.312 384zM640 352C657.664 352 672 366.336 672 384S657.664 416 640 416H384C366.336 416 352 401.664 352 384S366.336 352 384 352z" />
    <glyph glyph-name="circle-minus-1"
      unicode="&#x63;&#x69;&#x72;&#x63;&#x6C;&#x65;&#x5F;&#x6D;&#x69;&#x6E;&#x75;&#x73;"
      horiz-adv-x="1024" d="M53.312 384C53.312 637.312 258.688 842.688 512 842.688C765.312 842.688 970.688 637.312 970.688 384C970.688 130.688 765.312 -74.688 512 -74.688C258.688 -74.688 53.312 130.688 53.312 384zM640 352C657.664 352 672 366.336 672 384S657.664 416 640 416H384C366.336 416 352 401.664 352 384S366.336 352 384 352z" />
    <glyph glyph-name="circle-plus"
      unicode="&#xE00E;"
      horiz-adv-x="1024" d="M512 842.688C765.312 842.688 970.688 637.312 970.688 384C970.688 130.688 765.312 -74.688 512 -74.688C258.688 -74.688 53.312 130.688 53.312 384C53.312 637.312 258.688 842.688 512 842.688zM672 384C672 401.664 657.664 416 640 416H544V512C544 529.664 529.664 544 512 544S480 529.664 480 512V416H384C366.336 416 352 401.664 352 384S366.336 352 384 352H480V256C480 238.336 494.336 224 512 224S544 238.336 544 256V352H640C657.664 352 672 366.336 672 384z" />
    <glyph glyph-name="circle-plus-1"
      unicode="&#x63;&#x69;&#x72;&#x63;&#x6C;&#x65;&#x5F;&#x70;&#x6C;&#x75;&#x73;"
      horiz-adv-x="1024" d="M512 842.688C765.312 842.688 970.688 637.312 970.688 384C970.688 130.688 765.312 -74.688 512 -74.688C258.688 -74.688 53.312 130.688 53.312 384C53.312 637.312 258.688 842.688 512 842.688zM672 384C672 401.664 657.664 416 640 416H544V512C544 529.664 529.664 544 512 544S480 529.664 480 512V416H384C366.336 416 352 401.664 352 384S366.336 352 384 352H480V256C480 238.336 494.336 224 512 224S544 238.336 544 256V352H640C657.664 352 672 366.336 672 384z" />
    <glyph glyph-name="filter"
      unicode="&#xE00F;"
      horiz-adv-x="1024" d="M896 565.35H469.35Q456.09 565.35 446.7200000000001 574.72T437.35 597.35Q437.35 610.61 446.7200000000001 619.98T469.35 629.35H896Q909.26 629.35 918.63 619.98T928 597.35Q928 584.09 918.63 574.72T896 565.35zM128 597.35C128 550.195 166.195 512 213.35 512C260.454 512 298.65 550.1949999999999 298.65 597.35C298.65 644.454 260.454 682.6500000000001 213.35 682.6500000000001C166.195 682.6500000000001 128 644.4540000000001 128 597.35zM96 597.35Q96 480 213.35 480Q330.65 480 330.65 597.35Q330.65 714.6500000000001 213.35 714.6500000000001Q154.675 714.6500000000001 125.338 685.312Q96 655.9739999999999 96 597.35zM160 597.35Q160 650.6500000000001 213.35 650.6500000000001Q266.65 650.6500000000001 266.65 597.35Q266.65 544 213.35 544Q191.232 544 175.616 559.616Q160 575.232 160 597.35zM128 202.6500000000001H554.65Q567.91 202.6500000000001 577.28 193.2800000000001T586.65 170.6500000000001Q586.65 157.3900000000001 577.28 148.0200000000001T554.65 138.6500000000001H128Q114.74 138.6500000000001 105.37 148.0200000000001T96 170.65Q96 183.91 105.37 193.28T128 202.65zM896 170.6500000000001A85.35 85.35 0 1 0 725.35 170.6500000000001A85.35 85.35 0 1 0 896 170.6500000000001zM928 170.6500000000001Q928 53.3500000000001 810.65 53.3500000000001Q762.06 53.3500000000001 727.706 87.7060000000001Q693.35 122.0610000000002 693.35 170.6500000000001Q693.35 219.2900000000001 727.706 253.6450000000001Q762.06 288 810.65 288Q928 288 928 170.65zM864 170.6500000000001Q864 224 810.65 224Q788.582 224 772.966 208.384Q757.35 192.768 757.35 170.65Q757.35 148.582 772.966 132.966Q788.582 117.35 810.65 117.35Q864 117.35 864 170.65z" />
    <glyph glyph-name="filter-1"
      unicode="&#x66;&#x69;&#x6C;&#x74;&#x65;&#x72;"
      horiz-adv-x="1024" d="M896 565.35H469.35Q456.09 565.35 446.7200000000001 574.72T437.35 597.35Q437.35 610.61 446.7200000000001 619.98T469.35 629.35H896Q909.26 629.35 918.63 619.98T928 597.35Q928 584.09 918.63 574.72T896 565.35zM128 597.35C128 550.195 166.195 512 213.35 512C260.454 512 298.65 550.1949999999999 298.65 597.35C298.65 644.454 260.454 682.6500000000001 213.35 682.6500000000001C166.195 682.6500000000001 128 644.4540000000001 128 597.35zM96 597.35Q96 480 213.35 480Q330.65 480 330.65 597.35Q330.65 714.6500000000001 213.35 714.6500000000001Q154.675 714.6500000000001 125.338 685.312Q96 655.9739999999999 96 597.35zM160 597.35Q160 650.6500000000001 213.35 650.6500000000001Q266.65 650.6500000000001 266.65 597.35Q266.65 544 213.35 544Q191.232 544 175.616 559.616Q160 575.232 160 597.35zM128 202.6500000000001H554.65Q567.91 202.6500000000001 577.28 193.2800000000001T586.65 170.6500000000001Q586.65 157.3900000000001 577.28 148.0200000000001T554.65 138.6500000000001H128Q114.74 138.6500000000001 105.37 148.0200000000001T96 170.65Q96 183.91 105.37 193.28T128 202.65zM896 170.6500000000001A85.35 85.35 0 1 0 725.35 170.6500000000001A85.35 85.35 0 1 0 896 170.6500000000001zM928 170.6500000000001Q928 53.3500000000001 810.65 53.3500000000001Q762.06 53.3500000000001 727.706 87.7060000000001Q693.35 122.0610000000002 693.35 170.6500000000001Q693.35 219.2900000000001 727.706 253.6450000000001Q762.06 288 810.65 288Q928 288 928 170.65zM864 170.6500000000001Q864 224 810.65 224Q788.582 224 772.966 208.384Q757.35 192.768 757.35 170.65Q757.35 148.582 772.966 132.966Q788.582 117.35 810.65 117.35Q864 117.35 864 170.65z" />
    <glyph glyph-name="undo"
      unicode="&#xE010;"
      horiz-adv-x="1024" d="M304.213 146.773H645.547Q720.597 146.773 773.76 199.893Q826.88 253.0560000000001 826.88 328.107Q826.88 403.157 773.76 456.3199999999999Q720.597 509.4399999999999 645.547 509.4399999999999H176.213Q162.943 509.4399999999999 153.6 518.827Q144.213 528.1709999999999 144.213 541.4399999999999Q144.213 554.7099999999999 153.6 564.0529999999999Q162.944 573.4399999999999 176.213 573.4399999999999H645.547Q747.1370000000001 573.4399999999999 818.9870000000001 501.5469999999999Q890.8800000000001 429.6969999999999 890.8800000000001 328.107T818.9870000000001 154.6669999999999Q747.1370000000001 82.7729999999999 645.547 82.7729999999999H304.213Q290.9430000000001 82.7729999999999 281.6 92.1599999999999Q272.213 101.5039999999999 272.213 114.7729999999999Q272.213 128.0429999999999 281.6 137.387Q290.944 146.7729999999999 304.213 146.7729999999999zM251.7330000000001 412.1600000000001L142.507 521.387Q133.12 530.73 133.12 544Q133.12 557.27 142.507 566.613L251.733 675.84Q261.077 685.227 274.347 685.227Q287.617 685.227 296.96 675.84Q306.347 666.496 306.347 653.227Q306.347 639.957 296.96 630.613L210.39 544L296.96 457.387Q306.347 448.043 306.347 434.773Q306.347 421.5030000000001 296.96 412.1600000000001Q287.616 402.773 274.347 402.773Q261.077 402.773 251.733 412.1600000000001z" />
    <glyph glyph-name="undo-1"
      unicode="&#x75;&#x6E;&#x64;&#x6F;"
      horiz-adv-x="1024" d="M304.213 146.773H645.547Q720.597 146.773 773.76 199.893Q826.88 253.0560000000001 826.88 328.107Q826.88 403.157 773.76 456.3199999999999Q720.597 509.4399999999999 645.547 509.4399999999999H176.213Q162.943 509.4399999999999 153.6 518.827Q144.213 528.1709999999999 144.213 541.4399999999999Q144.213 554.7099999999999 153.6 564.0529999999999Q162.944 573.4399999999999 176.213 573.4399999999999H645.547Q747.1370000000001 573.4399999999999 818.9870000000001 501.5469999999999Q890.8800000000001 429.6969999999999 890.8800000000001 328.107T818.9870000000001 154.6669999999999Q747.1370000000001 82.7729999999999 645.547 82.7729999999999H304.213Q290.9430000000001 82.7729999999999 281.6 92.1599999999999Q272.213 101.5039999999999 272.213 114.7729999999999Q272.213 128.0429999999999 281.6 137.387Q290.944 146.7729999999999 304.213 146.7729999999999zM251.7330000000001 412.1600000000001L142.507 521.387Q133.12 530.73 133.12 544Q133.12 557.27 142.507 566.613L251.733 675.84Q261.077 685.227 274.347 685.227Q287.617 685.227 296.96 675.84Q306.347 666.496 306.347 653.227Q306.347 639.957 296.96 630.613L210.39 544L296.96 457.387Q306.347 448.043 306.347 434.773Q306.347 421.5030000000001 296.96 412.1600000000001Q287.616 402.773 274.347 402.773Q261.077 402.773 251.733 412.1600000000001z" />
    <glyph glyph-name="fill-coupon"
      unicode="&#xE011;"
      horiz-adv-x="1024" d="M585.31 838.47C613.0039999999999 849.92 654.1959999999999 865.885 695.1099999999999 849.78C700.7879999999999 847.546 706.3739999999999 845.22 711.9129999999999 842.798C752.1729999999999 825.251 770.0479999999999 784.85 781.4979999999999 757.155C783.5459999999999 752.221 785.4549999999999 747.565 787.223 743.098C791.226 733.184 794.81 724.294 799.0459999999999 715.404C804.9559999999999 703.069 810.5419999999999 694.364 816.454 688.4540000000001C822.319 682.542 831.024 676.9570000000001 843.404 671.046C852.247 666.856 861.138 663.273 871.098 659.27C875.52 657.4540000000001 880.175 655.5930000000001 885.155 653.5450000000001C912.85 642.048 953.205 624.221 970.799 583.913C973.219 578.373 975.545 572.788 977.779 567.11C993.884 526.196 977.919 485.004 966.469 457.262C964.421 452.329 962.419 447.722 960.557 443.299C956.369 433.429 952.597 424.587 949.34 415.371C944.733 402.431 942.545 392.331 942.545 383.999C942.545 375.621 944.733 365.519 949.3410000000002 352.6270000000001C952.6010000000002 343.365 956.371 334.5210000000001 960.559 324.7000000000001C962.421 320.2800000000001 964.4230000000002 315.625 966.4710000000002 310.6900000000001C977.9210000000002 282.9960000000001 993.886 241.7570000000001 977.781 200.8440000000001C975.547 195.2120000000001 973.2210000000002 189.6260000000001 970.8460000000002 184.0870000000001C953.252 143.8270000000001 912.8510000000002 125.9520000000001 885.1560000000002 114.4550000000002C880.2220000000002 112.4070000000002 875.5680000000002 110.5450000000002 871.1460000000002 108.7770000000002C861.1860000000001 104.7740000000001 852.2480000000002 101.1900000000002 843.4060000000002 96.9540000000002C831.0240000000002 91.0440000000002 822.3190000000002 85.4580000000002 816.4560000000001 79.5460000000002C810.5430000000001 73.6360000000002 804.9580000000001 64.9310000000002 799.0460000000002 52.5960000000001C794.8110000000001 43.7530000000002 791.2260000000001 34.8160000000001 787.2240000000002 24.9020000000002C785.4560000000001 20.4320000000001 783.5470000000001 15.7790000000001 781.4990000000001 10.8450000000001C770.0490000000001 -16.8499999999999 752.1750000000002 -57.2509999999999 711.9140000000001 -74.8449999999998C706.3740000000001 -77.2649999999998 700.7890000000001 -79.5929999999998 695.1110000000001 -81.7799999999997C654.1970000000001 -97.8849999999998 613.0050000000001 -81.9199999999997 585.3110000000001 -70.4699999999998C580.3310000000001 -68.4219999999998 575.7210000000001 -66.4669999999998 571.3010000000002 -64.6049999999998C561.4310000000002 -60.3689999999998 552.6350000000001 -56.5989999999998 543.3730000000002 -53.3409999999998C530.4330000000001 -48.7809999999998 520.3330000000002 -46.5459999999998 512.0010000000002 -46.5459999999998C503.6230000000002 -46.5459999999998 493.5230000000002 -48.7809999999998 480.6290000000002 -53.3419999999999C471.3670000000002 -56.6019999999999 462.5690000000002 -60.3719999999998 452.7020000000002 -64.5599999999998C448.2820000000002 -66.4699999999998 443.6720000000002 -68.4239999999999 438.6920000000002 -70.4719999999999C410.9980000000002 -81.9219999999999 369.8060000000002 -97.8869999999998 328.8460000000002 -81.7819999999998C323.2140000000002 -79.5949999999998 317.6280000000002 -77.2679999999998 312.0890000000002 -74.8469999999999C271.7810000000002 -57.2529999999998 253.9540000000002 -16.8519999999999 242.4570000000002 10.8430000000001C240.4090000000002 15.777 238.5470000000002 20.431 236.7320000000002 24.8530000000001C232.7290000000002 34.8130000000001 229.1450000000002 43.7030000000001 224.9560000000002 52.5930000000001C219.0460000000002 64.9290000000001 213.4600000000002 73.633 207.5480000000002 79.5430000000001C201.6380000000002 85.4560000000001 192.9330000000002 91.0410000000002 180.5980000000002 96.9060000000002C171.7080000000002 101.1410000000002 162.8180000000002 104.7260000000002 152.9040000000002 108.7280000000002C148.4360000000002 110.5430000000002 143.7810000000002 112.4050000000002 138.8470000000002 114.4530000000002C111.1520000000002 125.9500000000002 70.7510000000002 143.7770000000002 53.1570000000002 184.0850000000003C50.7370000000002 189.6250000000002 48.4570000000002 195.2100000000003 46.2220000000002 200.8420000000002C30.1170000000002 241.7550000000002 46.0820000000002 282.9940000000003 57.5320000000002 310.6890000000002C59.5800000000002 315.6240000000002 61.5350000000002 320.2790000000002 63.4420000000002 324.6990000000002C67.6320000000002 334.5210000000002 71.4020000000002 343.3650000000003 74.6620000000002 352.6270000000002C79.2220000000002 365.5200000000002 81.4560000000002 375.6210000000002 81.4560000000002 383.9990000000002C81.4560000000002 392.3310000000002 79.2220000000002 402.4310000000002 74.6610000000002 415.3710000000002C71.4010000000002 424.5870000000002 67.6310000000002 433.4310000000002 63.4430000000002 443.2980000000002C61.5330000000002 447.7180000000002 59.5790000000002 452.3280000000001 57.5310000000002 457.2600000000002C46.0810000000002 485.0020000000002 30.1160000000002 526.1940000000002 46.2210000000002 567.1080000000002C48.4550000000002 572.7860000000002 50.7350000000002 578.3720000000002 53.1560000000002 583.9110000000002C70.7500000000002 624.1730000000002 111.1510000000002 642.0460000000002 138.8460000000002 653.5430000000001C143.7800000000002 655.5910000000001 148.4360000000002 657.4530000000002 152.9030000000002 659.2210000000002C162.8170000000002 663.2240000000002 171.7070000000002 666.8080000000002 180.5970000000002 671.0440000000002C192.9320000000002 676.9540000000002 201.6370000000002 682.5400000000002 207.5470000000002 688.4520000000002C213.4590000000002 694.3620000000002 219.0440000000002 703.0210000000002 224.9550000000002 715.4020000000002C229.1450000000002 724.2450000000001 232.7280000000002 733.1820000000001 236.7310000000002 743.0960000000001C238.5470000000002 747.5640000000001 240.4080000000002 752.2190000000002 242.4560000000002 757.1530000000001C253.9530000000002 784.8480000000002 271.7800000000002 825.2490000000001 312.0880000000002 842.7960000000002C317.6280000000002 845.2160000000001 323.2130000000002 847.5440000000001 328.8450000000002 849.7780000000001C369.8050000000002 865.8830000000002 410.9970000000002 849.9180000000001 438.6920000000002 838.4680000000001C443.6720000000002 836.3730000000002 448.2820000000002 834.4180000000001 452.7020000000002 832.5580000000001C462.5720000000002 828.3680000000002 471.3680000000002 824.5980000000002 480.6300000000002 821.2920000000001C493.5240000000002 816.7320000000001 503.6240000000001 814.5440000000001 512.0020000000002 814.5440000000001C520.3340000000002 814.5440000000001 530.4340000000002 816.7310000000001 543.3740000000001 821.2920000000001C552.6360000000002 824.5970000000001 561.4340000000001 828.3680000000002 571.3010000000002 832.5570000000001C575.7210000000001 834.4170000000001 580.3310000000001 836.3720000000001 585.3110000000001 838.4670000000001zM640.8839999999999 512.884C627.2459999999999 526.5219999999999 605.1379999999999 526.5219999999999 591.4999999999999 512.884L383.116 304.5C369.478 290.862 369.478 268.754 383.116 255.116C396.753 241.478 418.816 241.478 432.454 255.116L640.884 463.546C654.522 477.184 654.522 499.293 640.884 512.884zM588.4279999999999 255.4880000000001C602.8099999999998 241.105 626.1299999999999 241.105 640.512 255.4880000000001C654.895 269.87 654.895 293.1900000000001 640.512 307.5720000000001C626.13 321.9550000000002 602.81 321.9550000000002 588.4279999999999 307.5720000000001C574.0449999999998 293.1900000000002 574.0449999999998 269.8700000000001 588.4279999999999 255.4880000000001zM383.4879999999999 460.4280000000001C397.8699999999999 446.0450000000001 421.1899999999999 446.0450000000001 435.5719999999999 460.4280000000001C449.9549999999999 474.8100000000001 449.9549999999999 498.1300000000001 435.5719999999999 512.5120000000001C421.1899999999999 526.894 397.8699999999999 526.894 383.4879999999999 512.5120000000001C369.1059999999999 498.1300000000001 369.1059999999999 474.8100000000001 383.4879999999999 460.4280000000001z" />
    <glyph glyph-name="fill-coupon-1"
      unicode="&#x66;&#x69;&#x6C;&#x6C;&#x5F;&#x63;&#x6F;&#x75;&#x70;&#x6F;&#x6E;"
      horiz-adv-x="1024" d="M585.31 838.47C613.0039999999999 849.92 654.1959999999999 865.885 695.1099999999999 849.78C700.7879999999999 847.546 706.3739999999999 845.22 711.9129999999999 842.798C752.1729999999999 825.251 770.0479999999999 784.85 781.4979999999999 757.155C783.5459999999999 752.221 785.4549999999999 747.565 787.223 743.098C791.226 733.184 794.81 724.294 799.0459999999999 715.404C804.9559999999999 703.069 810.5419999999999 694.364 816.454 688.4540000000001C822.319 682.542 831.024 676.9570000000001 843.404 671.046C852.247 666.856 861.138 663.273 871.098 659.27C875.52 657.4540000000001 880.175 655.5930000000001 885.155 653.5450000000001C912.85 642.048 953.205 624.221 970.799 583.913C973.219 578.373 975.545 572.788 977.779 567.11C993.884 526.196 977.919 485.004 966.469 457.262C964.421 452.329 962.419 447.722 960.557 443.299C956.369 433.429 952.597 424.587 949.34 415.371C944.733 402.431 942.545 392.331 942.545 383.999C942.545 375.621 944.733 365.519 949.3410000000002 352.6270000000001C952.6010000000002 343.365 956.371 334.5210000000001 960.559 324.7000000000001C962.421 320.2800000000001 964.4230000000002 315.625 966.4710000000002 310.6900000000001C977.9210000000002 282.9960000000001 993.886 241.7570000000001 977.781 200.8440000000001C975.547 195.2120000000001 973.2210000000002 189.6260000000001 970.8460000000002 184.0870000000001C953.252 143.8270000000001 912.8510000000002 125.9520000000001 885.1560000000002 114.4550000000002C880.2220000000002 112.4070000000002 875.5680000000002 110.5450000000002 871.1460000000002 108.7770000000002C861.1860000000001 104.7740000000001 852.2480000000002 101.1900000000002 843.4060000000002 96.9540000000002C831.0240000000002 91.0440000000002 822.3190000000002 85.4580000000002 816.4560000000001 79.5460000000002C810.5430000000001 73.6360000000002 804.9580000000001 64.9310000000002 799.0460000000002 52.5960000000001C794.8110000000001 43.7530000000002 791.2260000000001 34.8160000000001 787.2240000000002 24.9020000000002C785.4560000000001 20.4320000000001 783.5470000000001 15.7790000000001 781.4990000000001 10.8450000000001C770.0490000000001 -16.8499999999999 752.1750000000002 -57.2509999999999 711.9140000000001 -74.8449999999998C706.3740000000001 -77.2649999999998 700.7890000000001 -79.5929999999998 695.1110000000001 -81.7799999999997C654.1970000000001 -97.8849999999998 613.0050000000001 -81.9199999999997 585.3110000000001 -70.4699999999998C580.3310000000001 -68.4219999999998 575.7210000000001 -66.4669999999998 571.3010000000002 -64.6049999999998C561.4310000000002 -60.3689999999998 552.6350000000001 -56.5989999999998 543.3730000000002 -53.3409999999998C530.4330000000001 -48.7809999999998 520.3330000000002 -46.5459999999998 512.0010000000002 -46.5459999999998C503.6230000000002 -46.5459999999998 493.5230000000002 -48.7809999999998 480.6290000000002 -53.3419999999999C471.3670000000002 -56.6019999999999 462.5690000000002 -60.3719999999998 452.7020000000002 -64.5599999999998C448.2820000000002 -66.4699999999998 443.6720000000002 -68.4239999999999 438.6920000000002 -70.4719999999999C410.9980000000002 -81.9219999999999 369.8060000000002 -97.8869999999998 328.8460000000002 -81.7819999999998C323.2140000000002 -79.5949999999998 317.6280000000002 -77.2679999999998 312.0890000000002 -74.8469999999999C271.7810000000002 -57.2529999999998 253.9540000000002 -16.8519999999999 242.4570000000002 10.8430000000001C240.4090000000002 15.777 238.5470000000002 20.431 236.7320000000002 24.8530000000001C232.7290000000002 34.8130000000001 229.1450000000002 43.7030000000001 224.9560000000002 52.5930000000001C219.0460000000002 64.9290000000001 213.4600000000002 73.633 207.5480000000002 79.5430000000001C201.6380000000002 85.4560000000001 192.9330000000002 91.0410000000002 180.5980000000002 96.9060000000002C171.7080000000002 101.1410000000002 162.8180000000002 104.7260000000002 152.9040000000002 108.7280000000002C148.4360000000002 110.5430000000002 143.7810000000002 112.4050000000002 138.8470000000002 114.4530000000002C111.1520000000002 125.9500000000002 70.7510000000002 143.7770000000002 53.1570000000002 184.0850000000003C50.7370000000002 189.6250000000002 48.4570000000002 195.2100000000003 46.2220000000002 200.8420000000002C30.1170000000002 241.7550000000002 46.0820000000002 282.9940000000003 57.5320000000002 310.6890000000002C59.5800000000002 315.6240000000002 61.5350000000002 320.2790000000002 63.4420000000002 324.6990000000002C67.6320000000002 334.5210000000002 71.4020000000002 343.3650000000003 74.6620000000002 352.6270000000002C79.2220000000002 365.5200000000002 81.4560000000002 375.6210000000002 81.4560000000002 383.9990000000002C81.4560000000002 392.3310000000002 79.2220000000002 402.4310000000002 74.6610000000002 415.3710000000002C71.4010000000002 424.5870000000002 67.6310000000002 433.4310000000002 63.4430000000002 443.2980000000002C61.5330000000002 447.7180000000002 59.5790000000002 452.3280000000001 57.5310000000002 457.2600000000002C46.0810000000002 485.0020000000002 30.1160000000002 526.1940000000002 46.2210000000002 567.1080000000002C48.4550000000002 572.7860000000002 50.7350000000002 578.3720000000002 53.1560000000002 583.9110000000002C70.7500000000002 624.1730000000002 111.1510000000002 642.0460000000002 138.8460000000002 653.5430000000001C143.7800000000002 655.5910000000001 148.4360000000002 657.4530000000002 152.9030000000002 659.2210000000002C162.8170000000002 663.2240000000002 171.7070000000002 666.8080000000002 180.5970000000002 671.0440000000002C192.9320000000002 676.9540000000002 201.6370000000002 682.5400000000002 207.5470000000002 688.4520000000002C213.4590000000002 694.3620000000002 219.0440000000002 703.0210000000002 224.9550000000002 715.4020000000002C229.1450000000002 724.2450000000001 232.7280000000002 733.1820000000001 236.7310000000002 743.0960000000001C238.5470000000002 747.5640000000001 240.4080000000002 752.2190000000002 242.4560000000002 757.1530000000001C253.9530000000002 784.8480000000002 271.7800000000002 825.2490000000001 312.0880000000002 842.7960000000002C317.6280000000002 845.2160000000001 323.2130000000002 847.5440000000001 328.8450000000002 849.7780000000001C369.8050000000002 865.8830000000002 410.9970000000002 849.9180000000001 438.6920000000002 838.4680000000001C443.6720000000002 836.3730000000002 448.2820000000002 834.4180000000001 452.7020000000002 832.5580000000001C462.5720000000002 828.3680000000002 471.3680000000002 824.5980000000002 480.6300000000002 821.2920000000001C493.5240000000002 816.7320000000001 503.6240000000001 814.5440000000001 512.0020000000002 814.5440000000001C520.3340000000002 814.5440000000001 530.4340000000002 816.7310000000001 543.3740000000001 821.2920000000001C552.6360000000002 824.5970000000001 561.4340000000001 828.3680000000002 571.3010000000002 832.5570000000001C575.7210000000001 834.4170000000001 580.3310000000001 836.3720000000001 585.3110000000001 838.4670000000001zM640.8839999999999 512.884C627.2459999999999 526.5219999999999 605.1379999999999 526.5219999999999 591.4999999999999 512.884L383.116 304.5C369.478 290.862 369.478 268.754 383.116 255.116C396.753 241.478 418.816 241.478 432.454 255.116L640.884 463.546C654.522 477.184 654.522 499.293 640.884 512.884zM588.4279999999999 255.4880000000001C602.8099999999998 241.105 626.1299999999999 241.105 640.512 255.4880000000001C654.895 269.87 654.895 293.1900000000001 640.512 307.5720000000001C626.13 321.9550000000002 602.81 321.9550000000002 588.4279999999999 307.5720000000001C574.0449999999998 293.1900000000002 574.0449999999998 269.8700000000001 588.4279999999999 255.4880000000001zM383.4879999999999 460.4280000000001C397.8699999999999 446.0450000000001 421.1899999999999 446.0450000000001 435.5719999999999 460.4280000000001C449.9549999999999 474.8100000000001 449.9549999999999 498.1300000000001 435.5719999999999 512.5120000000001C421.1899999999999 526.894 397.8699999999999 526.894 383.4879999999999 512.5120000000001C369.1059999999999 498.1300000000001 369.1059999999999 474.8100000000001 383.4879999999999 460.4280000000001z" />
    <glyph glyph-name="fill-check"
      unicode="&#xE012;"
      horiz-adv-x="1024" d="M512 858.055C250.823 858.055 37.945 645.235 37.945 384C37.945 122.823 250.823 -90.0550000000001 512 -90.0550000000001C773.2339999999999 -90.0550000000001 986.112 122.8229999999999 986.112 384C986.112 645.2339999999999 773.2340000000002 858.0550000000001 512 858.0550000000001zM738.645 493.055L469.845 224.255C463.19 217.6 454.2 213.79 444.7 213.79C435.2 213.79 426.212 217.602 419.556 224.2579999999999L285.412 358.4C271.644 372.1670000000001 271.644 394.923 285.412 408.69C299.179 422.4 321.934 422.4 335.644 408.69L444.7 299.634L688.356 543.29C702.123 557.056 724.878 557.056 738.646 543.29C752.356 529.58 752.356 507.278 738.646 493.056z" />
    <glyph glyph-name="fill-check-1"
      unicode="&#x66;&#x69;&#x6C;&#x6C;&#x5F;&#x63;&#x68;&#x65;&#x63;&#x6B;"
      horiz-adv-x="1024" d="M512 858.055C250.823 858.055 37.945 645.235 37.945 384C37.945 122.823 250.823 -90.0550000000001 512 -90.0550000000001C773.2339999999999 -90.0550000000001 986.112 122.8229999999999 986.112 384C986.112 645.2339999999999 773.2340000000002 858.0550000000001 512 858.0550000000001zM738.645 493.055L469.845 224.255C463.19 217.6 454.2 213.79 444.7 213.79C435.2 213.79 426.212 217.602 419.556 224.2579999999999L285.412 358.4C271.644 372.1670000000001 271.644 394.923 285.412 408.69C299.179 422.4 321.934 422.4 335.644 408.69L444.7 299.634L688.356 543.29C702.123 557.056 724.878 557.056 738.646 543.29C752.356 529.58 752.356 507.278 738.646 493.056z" />
    <glyph glyph-name="edit"
      unicode="&#xE013;"
      horiz-adv-x="1024" d="M483.072 594.624L711.424 366.2080000000001L433.024 80.576C408.896 55.8720000000001 375.872 41.9200000000001 341.376 41.9200000000001H224C187.584 41.9200000000001 158.528 72.2560000000001 160.064 108.6080000000001L165.12 228.48C166.464 260.544 179.776 290.944 202.432 313.6zM599.232 710.976C632.512 744.384 686.528 744.384 719.872 711.04L826.1759999999999 604.736C859.1999999999999 571.712 859.584 518.208 826.944 484.736L756.096 412.096L528.256 639.936zM875.328 12.992H614.144C596.416 12.992 582.144 27.328 582.144 44.992S596.416 76.992 614.144 76.992H875.328C892.992 76.992 907.328 62.656 907.328 44.992S892.992 12.992 875.328 12.992z" />
    <glyph glyph-name="edit-1"
      unicode="&#x65;&#x64;&#x69;&#x74;"
      horiz-adv-x="1024" d="M483.072 594.624L711.424 366.2080000000001L433.024 80.576C408.896 55.8720000000001 375.872 41.9200000000001 341.376 41.9200000000001H224C187.584 41.9200000000001 158.528 72.2560000000001 160.064 108.6080000000001L165.12 228.48C166.464 260.544 179.776 290.944 202.432 313.6zM599.232 710.976C632.512 744.384 686.528 744.384 719.872 711.04L826.1759999999999 604.736C859.1999999999999 571.712 859.584 518.208 826.944 484.736L756.096 412.096L528.256 639.936zM875.328 12.992H614.144C596.416 12.992 582.144 27.328 582.144 44.992S596.416 76.992 614.144 76.992H875.328C892.992 76.992 907.328 62.656 907.328 44.992S892.992 12.992 875.328 12.992z" />
    <glyph glyph-name="fill-bag"
      unicode="&#xE014;"
      horiz-adv-x="1024" d="M309.35 640C309.35 751.923 400.077 842.65 512 842.65S714.65 751.923 714.65 640V622.182C791.603 601.19 851.15 535.859 862.106 453.427L901.939 154.7770000000001C918.17 33.28 823.653 -74.65 701.08 -74.65H322.918C200.346 -74.65 105.83 33.28 122.061 154.778L161.844 453.428C172.852 535.858 232.398 601.19 309.351 622.182zM362.752 629.35C344.32 629.35 326.4000000000001 626.8420000000001 309.35 622.182V512C309.35 494.336 323.6860000000001 480 341.35 480S373.35 494.336 373.35 512V629.35H650.6500000000001V512C650.6500000000001 494.336 664.9860000000001 480 682.6500000000001 480C700.3650000000001 480 714.6500000000001 494.336 714.6500000000001 512V622.182C697.6000000000001 626.8420000000001 679.6800000000001 629.35 661.248 629.35H650.65V640C650.65 716.595 588.595 778.65 512 778.65S373.35 716.595 373.35 640V629.35z" />
    <glyph glyph-name="fill-bag-1"
      unicode="&#x66;&#x69;&#x6C;&#x6C;&#x5F;&#x62;&#x61;&#x67;"
      horiz-adv-x="1024" d="M309.35 640C309.35 751.923 400.077 842.65 512 842.65S714.65 751.923 714.65 640V622.182C791.603 601.19 851.15 535.859 862.106 453.427L901.939 154.7770000000001C918.17 33.28 823.653 -74.65 701.08 -74.65H322.918C200.346 -74.65 105.83 33.28 122.061 154.778L161.844 453.428C172.852 535.858 232.398 601.19 309.351 622.182zM362.752 629.35C344.32 629.35 326.4000000000001 626.8420000000001 309.35 622.182V512C309.35 494.336 323.6860000000001 480 341.35 480S373.35 494.336 373.35 512V629.35H650.6500000000001V512C650.6500000000001 494.336 664.9860000000001 480 682.6500000000001 480C700.3650000000001 480 714.6500000000001 494.336 714.6500000000001 512V622.182C697.6000000000001 626.8420000000001 679.6800000000001 629.35 661.248 629.35H650.65V640C650.65 716.595 588.595 778.65 512 778.65S373.35 716.595 373.35 640V629.35z" />
    <glyph glyph-name="check-bag"
      unicode="&#xE015;"
      horiz-adv-x="1024" d="M309.35 640C309.35 751.923 400.077 842.7 512 842.7S714.65 751.924 714.65 640V622.182C791.603 601.19 851.15 535.859 862.1569999999999 453.478L901.939 154.778C918.17 33.28 823.653 -74.65 701.08 -74.65H322.918C200.346 -74.65 105.83 33.28 122.061 154.778L161.844 453.478C172.852 535.858 232.398 601.19 309.351 622.182zM362.752 629.35C344.32 629.35 326.4000000000001 626.8420000000001 309.35 622.182V512C309.35 494.336 323.6860000000001 480 341.35 480S373.35 494.336 373.35 512V629.35H650.6500000000001V512C650.6500000000001 494.336 664.9860000000001 480 682.6500000000001 480C700.3650000000001 480 714.6500000000001 494.336 714.6500000000001 512V622.182C697.6000000000001 626.8420000000001 679.6800000000001 629.35 661.248 629.35H650.65V640C650.65 716.595 588.595 778.65 512 778.65S373.35 716.595 373.35 640V629.35zM513.28 148.0700000000001L683.98 318.7200000000001C696.474 331.2130000000001 696.474 351.4880000000001 683.98 363.98C671.488 376.4740000000001 651.213 376.4740000000001 638.72 363.98L490.65 215.91L427.98 278.63C415.488 291.1230000000001 395.213 291.1230000000001 382.72 278.63C370.227 266.1380000000001 370.227 245.862 382.72 233.37L468.02 148.0700000000001C480.563 135.5780000000001 500.787 135.5780000000001 513.28 148.0700000000001z" />
    <glyph glyph-name="check-bag-1"
      unicode="&#x63;&#x68;&#x65;&#x63;&#x6B;&#x5F;&#x62;&#x61;&#x67;"
      horiz-adv-x="1024" d="M309.35 640C309.35 751.923 400.077 842.7 512 842.7S714.65 751.924 714.65 640V622.182C791.603 601.19 851.15 535.859 862.1569999999999 453.478L901.939 154.778C918.17 33.28 823.653 -74.65 701.08 -74.65H322.918C200.346 -74.65 105.83 33.28 122.061 154.778L161.844 453.478C172.852 535.858 232.398 601.19 309.351 622.182zM362.752 629.35C344.32 629.35 326.4000000000001 626.8420000000001 309.35 622.182V512C309.35 494.336 323.6860000000001 480 341.35 480S373.35 494.336 373.35 512V629.35H650.6500000000001V512C650.6500000000001 494.336 664.9860000000001 480 682.6500000000001 480C700.3650000000001 480 714.6500000000001 494.336 714.6500000000001 512V622.182C697.6000000000001 626.8420000000001 679.6800000000001 629.35 661.248 629.35H650.65V640C650.65 716.595 588.595 778.65 512 778.65S373.35 716.595 373.35 640V629.35zM513.28 148.0700000000001L683.98 318.7200000000001C696.474 331.2130000000001 696.474 351.4880000000001 683.98 363.98C671.488 376.4740000000001 651.213 376.4740000000001 638.72 363.98L490.65 215.91L427.98 278.63C415.488 291.1230000000001 395.213 291.1230000000001 382.72 278.63C370.227 266.1380000000001 370.227 245.862 382.72 233.37L468.02 148.0700000000001C480.563 135.5780000000001 500.787 135.5780000000001 513.28 148.0700000000001z" />
    <glyph glyph-name="fill-logout"
      unicode="&#xE016;"
      horiz-adv-x="1024" d="M716.8 810.65H605.85C469.35 810.65 384 725.35 384 588.8V416H650.65C668.16 416 682.65 401.51 682.65 384C682.65 366.54 668.16 352 650.65 352H384V179.2000000000001C384 42.7 469.35 -42.65 605.85 -42.65H716.39C852.89 -42.65 938.24 42.7 938.24 179.2000000000001V588.8C938.65 725.35 853.35 810.65 716.8 810.65zM194.56 416L282.88 504.32C289.28 510.72 292.25 518.81 292.25 526.95C292.25 535.04 289.28 543.5899999999999 282.88 549.53C270.49 561.92 250.01 561.92 237.67 549.53L94.72 406.63C82.33 394.24 82.33 373.76 94.72 361.37L237.67 218.47C250.01 206.0800000000001 270.49 206.0800000000001 282.88 218.47C295.27 230.8100000000001 295.27 251.2900000000001 282.88 263.6800000000001L194.56 352H384V416H194.56z" />
    <glyph glyph-name="fill-logout-1"
      unicode="&#x66;&#x69;&#x6C;&#x6C;&#x5F;&#x6C;&#x6F;&#x67;&#x6F;&#x75;&#x74;"
      horiz-adv-x="1024" d="M716.8 810.65H605.85C469.35 810.65 384 725.35 384 588.8V416H650.65C668.16 416 682.65 401.51 682.65 384C682.65 366.54 668.16 352 650.65 352H384V179.2000000000001C384 42.7 469.35 -42.65 605.85 -42.65H716.39C852.89 -42.65 938.24 42.7 938.24 179.2000000000001V588.8C938.65 725.35 853.35 810.65 716.8 810.65zM194.56 416L282.88 504.32C289.28 510.72 292.25 518.81 292.25 526.95C292.25 535.04 289.28 543.5899999999999 282.88 549.53C270.49 561.92 250.01 561.92 237.67 549.53L94.72 406.63C82.33 394.24 82.33 373.76 94.72 361.37L237.67 218.47C250.01 206.0800000000001 270.49 206.0800000000001 282.88 218.47C295.27 230.8100000000001 295.27 251.2900000000001 282.88 263.6800000000001L194.56 352H384V416H194.56z" />
    <glyph glyph-name="fill-location"
      unicode="&#xE017;"
      horiz-adv-x="1024" d="M138.65 451.533C138.65 656.077 306.125 821.3 512 821.3C717.875 821.3 885.35 656.077 885.35 451.533C885.35 324.3530000000001 811.162 198.7580000000001 732.518 107.366C692.736 61.133 650.496 22.066 613.274 -5.684C594.688 -19.558 576.768 -30.976 560.64 -39.117C545.536 -46.694 528.282 -53.3499999999999 512 -53.3499999999999C495.718 -53.3499999999999 478.464 -46.694 463.36 -39.117C447.2320000000001 -30.977 429.312 -19.557 410.726 -5.683C373.504 22.067 331.264 61.133 291.482 107.367C212.838 198.757 138.65 324.352 138.65 451.533zM512 341.35C582.707 341.35 640 398.6430000000001 640 469.35C640 540.0060000000001 582.707 597.35 512 597.35S384 540.0060000000001 384 469.35C384 398.6430000000001 441.293 341.35 512 341.35z" />
    <glyph glyph-name="fill-location-1"
      unicode="&#x66;&#x69;&#x6C;&#x6C;&#x5F;&#x6C;&#x6F;&#x63;&#x61;&#x74;&#x69;&#x6F;&#x6E;"
      horiz-adv-x="1024" d="M138.65 451.533C138.65 656.077 306.125 821.3 512 821.3C717.875 821.3 885.35 656.077 885.35 451.533C885.35 324.3530000000001 811.162 198.7580000000001 732.518 107.366C692.736 61.133 650.496 22.066 613.274 -5.684C594.688 -19.558 576.768 -30.976 560.64 -39.117C545.536 -46.694 528.282 -53.3499999999999 512 -53.3499999999999C495.718 -53.3499999999999 478.464 -46.694 463.36 -39.117C447.2320000000001 -30.977 429.312 -19.557 410.726 -5.683C373.504 22.067 331.264 61.133 291.482 107.367C212.838 198.757 138.65 324.352 138.65 451.533zM512 341.35C582.707 341.35 640 398.6430000000001 640 469.35C640 540.0060000000001 582.707 597.35 512 597.35S384 540.0060000000001 384 469.35C384 398.6430000000001 441.293 341.35 512 341.35z" />
    <glyph glyph-name="fill-user"
      unicode="&#xE018;"
      horiz-adv-x="1024" d="M341.35 597.35C341.35 503.09 417.74 426.6500000000001 512 426.6500000000001S682.65 503.09 682.65 597.35C682.65 691.61 606.26 768 512 768S341.35 691.61 341.35 597.35zM309.35 597.35Q309.35 394.6500000000001 512 394.6500000000001T714.65 597.35Q714.65 800 512 800Q410.675 800 359.987 749.312Q309.35 698.675 309.35 597.35zM373.35 597.35Q373.35 736 512 736Q569.446 736 610.048 695.398Q650.65 654.746 650.65 597.35Q650.65 458.65 512 458.65Q454.554 458.65 413.952 499.302Q373.35 539.904 373.35 597.35zM213.35 173.466C213.35 210.1760000000001 236.39 242.8930000000001 271.002 255.232C426.8540000000001 310.886 597.146 310.886 752.998 255.232C787.61 242.892 810.6500000000001 210.1759999999999 810.6500000000001 173.466V117.3C810.6500000000001 66.6619999999999 765.7980000000001 27.75 715.6220000000001 34.9179999999999L674.9180000000001 40.7039999999998C566.8350000000002 56.1659999999998 457.1650000000001 56.1659999999998 349.0820000000001 40.7039999999998L308.3780000000001 34.9179999999999C258.2020000000001 27.7499999999999 213.3500000000001 66.6619999999999 213.3500000000001 117.2979999999999V173.4659999999999zM181.35 173.466Q181.35 257.2290000000001 260.1980000000001 285.389Q512 375.2950000000001 763.802 285.389Q842.65 257.177 842.65 173.465V117.3Q842.65 64.717 802.918 30.26Q763.188 -4.198 711.118 3.226L670.413 9.062Q512 31.6420000000001 353.587 9.062L312.883 3.226Q260.813 -4.198 221.083 30.259Q181.35 64.716 181.35 117.299zM245.35 173.466V117.3Q245.35 93.9 263.014 78.592Q280.678 63.282 303.8210000000001 66.56L344.577 72.3969999999999Q512.001 96.3069999999999 679.425 72.3969999999999L720.18 66.56Q743.322 63.2829999999999 760.986 78.592Q778.65 93.9019999999999 778.65 117.299V173.4649999999999Q778.65 212.1209999999999 742.246 225.1249999999999Q512 307.3529999999999 281.754 225.1249999999999Q245.35 212.1209999999999 245.35 173.4649999999999z" />
    <glyph glyph-name="fill-user-1"
      unicode="&#x66;&#x69;&#x6C;&#x6C;&#x5F;&#x75;&#x73;&#x65;&#x72;"
      horiz-adv-x="1024" d="M341.35 597.35C341.35 503.09 417.74 426.6500000000001 512 426.6500000000001S682.65 503.09 682.65 597.35C682.65 691.61 606.26 768 512 768S341.35 691.61 341.35 597.35zM309.35 597.35Q309.35 394.6500000000001 512 394.6500000000001T714.65 597.35Q714.65 800 512 800Q410.675 800 359.987 749.312Q309.35 698.675 309.35 597.35zM373.35 597.35Q373.35 736 512 736Q569.446 736 610.048 695.398Q650.65 654.746 650.65 597.35Q650.65 458.65 512 458.65Q454.554 458.65 413.952 499.302Q373.35 539.904 373.35 597.35zM213.35 173.466C213.35 210.1760000000001 236.39 242.8930000000001 271.002 255.232C426.8540000000001 310.886 597.146 310.886 752.998 255.232C787.61 242.892 810.6500000000001 210.1759999999999 810.6500000000001 173.466V117.3C810.6500000000001 66.6619999999999 765.7980000000001 27.75 715.6220000000001 34.9179999999999L674.9180000000001 40.7039999999998C566.8350000000002 56.1659999999998 457.1650000000001 56.1659999999998 349.0820000000001 40.7039999999998L308.3780000000001 34.9179999999999C258.2020000000001 27.7499999999999 213.3500000000001 66.6619999999999 213.3500000000001 117.2979999999999V173.4659999999999zM181.35 173.466Q181.35 257.2290000000001 260.1980000000001 285.389Q512 375.2950000000001 763.802 285.389Q842.65 257.177 842.65 173.465V117.3Q842.65 64.717 802.918 30.26Q763.188 -4.198 711.118 3.226L670.413 9.062Q512 31.6420000000001 353.587 9.062L312.883 3.226Q260.813 -4.198 221.083 30.259Q181.35 64.716 181.35 117.299zM245.35 173.466V117.3Q245.35 93.9 263.014 78.592Q280.678 63.282 303.8210000000001 66.56L344.577 72.3969999999999Q512.001 96.3069999999999 679.425 72.3969999999999L720.18 66.56Q743.322 63.2829999999999 760.986 78.592Q778.65 93.9019999999999 778.65 117.299V173.4649999999999Q778.65 212.1209999999999 742.246 225.1249999999999Q512 307.3529999999999 281.754 225.1249999999999Q245.35 212.1209999999999 245.35 173.4649999999999z" />
    <glyph glyph-name="fill-refresh"
      unicode="&#xE019;"
      horiz-adv-x="1024" d="M690.79 810.65H333.21C177.92 810.65 85.35 718.08 85.35 562.79V205.67C85.35 49.92 177.92 -42.6500000000001 333.21 -42.6500000000001H690.3299999999999C845.67 -42.6500000000001 938.2399999999998 49.9199999999998 938.2399999999998 205.2099999999999V562.79C938.6499999999997 718.08 846.0799999999999 810.6500000000001 690.79 810.6500000000001zM224 388.71C225.28 463.82 255.13 534.63 308.07 587.52C362.65 642.15 435.2 672 512 672C588.8 672 661.35 642.15 715.52 587.52C716.8 586.24 718.0799999999999 584.55 719.36 582.81V619.52C719.36 637.03 733.85 651.52 751.36 651.52C768.87 651.52 783.36 637.03 783.36 619.52V506.47C783.36 488.96 768.87 474.47 751.36 474.47H638.31C620.8 474.47 606.31 488.96 606.31 506.47C606.31 523.98 620.8 538.47 638.31 538.47H673.6899999999999C672.41 539.75 671.5899999999999 541.03 670.31 542.31C628.07 584.55 571.75 608 512 608S395.93 584.55 353.69 542.31C312.32 500.94 289.28 445.9 288.41 387.43C288 370.3300000000001 273.51 356.3 256 356.3H255.59C238.08 356.3 224 371.2 224 388.7099999999999zM715.52 180.48C661.35 126.31 588.8 96 512 96C435.2 96 362.65 125.9 308.48 180.48C307.2000000000001 181.76 305.92 183.5 304.6400000000001 185.1900000000001V148.9400000000001C304.6400000000001 131.4300000000001 290.1500000000001 116.9400000000001 272.6400000000001 116.9400000000001C255.1300000000001 116.9400000000001 240.6400000000001 131.4300000000001 240.6400000000001 148.9400000000001V261.99C240.6400000000001 279.5 255.1300000000001 293.99 272.6400000000001 293.99H385.6900000000001C403.2000000000001 293.99 417.6900000000001 279.5 417.6900000000001 261.99C417.6900000000001 244.48 403.2000000000001 229.99 385.6900000000001 229.99H350.3100000000001C351.5900000000001 228.7100000000001 352.4100000000001 227.4300000000001 353.6900000000001 226.15C395.9300000000001 183.91 452.2500000000001 160.41 512 160.41S628.0699999999999 183.91 670.31 226.15C712.0899999999999 267.93 735.5899999999999 323.8399999999999 735.5899999999999 383.5899999999999C735.5899999999999 401.0999999999999 750.0799999999999 415.5899999999999 767.5899999999999 415.5899999999999C785.05 415.5899999999999 799.5899999999999 401.0999999999999 799.5899999999999 383.5899999999999C799.5899999999999 306.33 769.6899999999999 234.2399999999999 715.52 180.4799999999999z" />
    <glyph glyph-name="fill-refresh-1"
      unicode="&#x66;&#x69;&#x6C;&#x6C;&#x5F;&#x72;&#x65;&#x66;&#x72;&#x65;&#x73;&#x68;"
      horiz-adv-x="1024" d="M690.79 810.65H333.21C177.92 810.65 85.35 718.08 85.35 562.79V205.67C85.35 49.92 177.92 -42.6500000000001 333.21 -42.6500000000001H690.3299999999999C845.67 -42.6500000000001 938.2399999999998 49.9199999999998 938.2399999999998 205.2099999999999V562.79C938.6499999999997 718.08 846.0799999999999 810.6500000000001 690.79 810.6500000000001zM224 388.71C225.28 463.82 255.13 534.63 308.07 587.52C362.65 642.15 435.2 672 512 672C588.8 672 661.35 642.15 715.52 587.52C716.8 586.24 718.0799999999999 584.55 719.36 582.81V619.52C719.36 637.03 733.85 651.52 751.36 651.52C768.87 651.52 783.36 637.03 783.36 619.52V506.47C783.36 488.96 768.87 474.47 751.36 474.47H638.31C620.8 474.47 606.31 488.96 606.31 506.47C606.31 523.98 620.8 538.47 638.31 538.47H673.6899999999999C672.41 539.75 671.5899999999999 541.03 670.31 542.31C628.07 584.55 571.75 608 512 608S395.93 584.55 353.69 542.31C312.32 500.94 289.28 445.9 288.41 387.43C288 370.3300000000001 273.51 356.3 256 356.3H255.59C238.08 356.3 224 371.2 224 388.7099999999999zM715.52 180.48C661.35 126.31 588.8 96 512 96C435.2 96 362.65 125.9 308.48 180.48C307.2000000000001 181.76 305.92 183.5 304.6400000000001 185.1900000000001V148.9400000000001C304.6400000000001 131.4300000000001 290.1500000000001 116.9400000000001 272.6400000000001 116.9400000000001C255.1300000000001 116.9400000000001 240.6400000000001 131.4300000000001 240.6400000000001 148.9400000000001V261.99C240.6400000000001 279.5 255.1300000000001 293.99 272.6400000000001 293.99H385.6900000000001C403.2000000000001 293.99 417.6900000000001 279.5 417.6900000000001 261.99C417.6900000000001 244.48 403.2000000000001 229.99 385.6900000000001 229.99H350.3100000000001C351.5900000000001 228.7100000000001 352.4100000000001 227.4300000000001 353.6900000000001 226.15C395.9300000000001 183.91 452.2500000000001 160.41 512 160.41S628.0699999999999 183.91 670.31 226.15C712.0899999999999 267.93 735.5899999999999 323.8399999999999 735.5899999999999 383.5899999999999C735.5899999999999 401.0999999999999 750.0799999999999 415.5899999999999 767.5899999999999 415.5899999999999C785.05 415.5899999999999 799.5899999999999 401.0999999999999 799.5899999999999 383.5899999999999C799.5899999999999 306.33 769.6899999999999 234.2399999999999 715.52 180.4799999999999z" />
    <glyph glyph-name="fill-category"
      unicode="&#xE01A;"
      horiz-adv-x="1024" d="M277.35 725.35H362.6500000000001A106.65 106.65 0 0 0 469.35 618.65V533.3A106.65 106.65 0 0 0 362.6500000000001 426.65H277.35A106.65 106.65 0 0 0 170.65 533.3V618.65A106.65 106.65 0 0 0 277.35 725.3499999999999zM277.35 757.35H362.6500000000001Q501.35 757.35 501.35 618.65V533.3499999999999Q501.35 475.904 460.698 435.25Q420.0960000000001 394.65 362.6500000000001 394.65H277.35Q138.65 394.65 138.65 533.3499999999999V618.65Q138.65 676.096 179.302 716.698Q219.904 757.3499999999999 277.35 757.3499999999999zM277.35 693.35Q246.426 693.35 224.512 671.437Q202.65 649.574 202.65 618.65V533.3Q202.65 502.374 224.512 480.5119999999999Q246.4260000000001 458.6499999999999 277.35 458.6499999999999H362.6500000000001Q437.35 458.6499999999999 437.35 533.3499999999999V618.6499999999999Q437.35 693.3499999999999 362.6500000000001 693.3499999999999zM277.35 298.7000000000001H362.6500000000001A106.65 106.65 0 0 0 469.35 192V106.7000000000001A106.65 106.65 0 0 0 362.65 0H277.35A106.65 106.65 0 0 0 170.65 106.7000000000001V192A106.65 106.65 0 0 0 277.35 298.7000000000001zM277.35 330.6500000000001H362.6500000000001Q501.35 330.6500000000001 501.35 192.0000000000001V106.6500000000001Q501.35 -31.9999999999999 362.6500000000001 -31.9999999999999H277.35Q219.904 -31.9999999999999 179.302 8.6020000000001Q138.65 49.2540000000001 138.65 106.6500000000001V192Q138.65 249.4460000000001 179.302 290.048Q219.904 330.65 277.35 330.65zM277.35 266.6500000000001Q202.65 266.6500000000001 202.65 192.0000000000001V106.6500000000001Q202.65 75.7250000000001 224.512 53.8620000000001Q246.426 32 277.35 32H362.6500000000001Q437.35 32 437.35 106.65V192Q437.35 266.65 362.6500000000001 266.65zM704 725.35H789.35A106.65 106.65 0 0 0 896 618.65V533.3A106.65 106.65 0 0 0 789.35 426.65H704A106.65 106.65 0 0 0 597.35 533.3V618.65A106.65 106.65 0 0 0 704 725.35zM704 757.35H789.35Q928 757.35 928 618.65V533.3499999999999Q928 475.904 887.398 435.25Q846.798 394.65 789.35 394.65H704Q646.554 394.65 605.952 435.25Q565.35 475.904 565.35 533.35V618.6500000000001Q565.35 757.35 704 757.35zM704 693.35Q673.075 693.35 651.213 671.437Q629.3499999999999 649.574 629.3499999999999 618.65V533.3499999999999Q629.3499999999999 458.65 703.9999999999999 458.65H789.3499999999999Q863.9999999999999 458.65 863.9999999999999 533.3499999999999V618.65Q863.9999999999999 693.3499999999999 789.3499999999999 693.3499999999999zM704 298.7000000000001H789.35A106.65 106.65 0 0 0 896 192V106.7000000000001A106.65 106.65 0 0 0 789.35 0H704A106.65 106.65 0 0 0 597.35 106.7000000000001V192A106.65 106.65 0 0 0 704 298.7000000000001zM704 330.6500000000001H789.35Q928 330.65 928 192V106.65Q928 49.254 887.398 8.602Q846.798 -32 789.35 -32H704Q646.554 -32 605.952 8.602Q565.35 49.254 565.35 106.65V192Q565.35 330.65 704 330.65zM704 266.6500000000001Q629.35 266.6500000000001 629.35 192.0000000000001V106.6500000000001Q629.35 32 704 32H789.35Q864 32 864 106.65V192Q864 266.65 789.35 266.65z" />
    <glyph glyph-name="fill-category-1"
      unicode="&#x66;&#x69;&#x6C;&#x6C;&#x5F;&#x63;&#x61;&#x74;&#x65;&#x67;&#x6F;&#x72;&#x79;"
      horiz-adv-x="1024" d="M277.35 725.35H362.6500000000001A106.65 106.65 0 0 0 469.35 618.65V533.3A106.65 106.65 0 0 0 362.6500000000001 426.65H277.35A106.65 106.65 0 0 0 170.65 533.3V618.65A106.65 106.65 0 0 0 277.35 725.3499999999999zM277.35 757.35H362.6500000000001Q501.35 757.35 501.35 618.65V533.3499999999999Q501.35 475.904 460.698 435.25Q420.0960000000001 394.65 362.6500000000001 394.65H277.35Q138.65 394.65 138.65 533.3499999999999V618.65Q138.65 676.096 179.302 716.698Q219.904 757.3499999999999 277.35 757.3499999999999zM277.35 693.35Q246.426 693.35 224.512 671.437Q202.65 649.574 202.65 618.65V533.3Q202.65 502.374 224.512 480.5119999999999Q246.4260000000001 458.6499999999999 277.35 458.6499999999999H362.6500000000001Q437.35 458.6499999999999 437.35 533.3499999999999V618.6499999999999Q437.35 693.3499999999999 362.6500000000001 693.3499999999999zM277.35 298.7000000000001H362.6500000000001A106.65 106.65 0 0 0 469.35 192V106.7000000000001A106.65 106.65 0 0 0 362.65 0H277.35A106.65 106.65 0 0 0 170.65 106.7000000000001V192A106.65 106.65 0 0 0 277.35 298.7000000000001zM277.35 330.6500000000001H362.6500000000001Q501.35 330.6500000000001 501.35 192.0000000000001V106.6500000000001Q501.35 -31.9999999999999 362.6500000000001 -31.9999999999999H277.35Q219.904 -31.9999999999999 179.302 8.6020000000001Q138.65 49.2540000000001 138.65 106.6500000000001V192Q138.65 249.4460000000001 179.302 290.048Q219.904 330.65 277.35 330.65zM277.35 266.6500000000001Q202.65 266.6500000000001 202.65 192.0000000000001V106.6500000000001Q202.65 75.7250000000001 224.512 53.8620000000001Q246.426 32 277.35 32H362.6500000000001Q437.35 32 437.35 106.65V192Q437.35 266.65 362.6500000000001 266.65zM704 725.35H789.35A106.65 106.65 0 0 0 896 618.65V533.3A106.65 106.65 0 0 0 789.35 426.65H704A106.65 106.65 0 0 0 597.35 533.3V618.65A106.65 106.65 0 0 0 704 725.35zM704 757.35H789.35Q928 757.35 928 618.65V533.3499999999999Q928 475.904 887.398 435.25Q846.798 394.65 789.35 394.65H704Q646.554 394.65 605.952 435.25Q565.35 475.904 565.35 533.35V618.6500000000001Q565.35 757.35 704 757.35zM704 693.35Q673.075 693.35 651.213 671.437Q629.3499999999999 649.574 629.3499999999999 618.65V533.3499999999999Q629.3499999999999 458.65 703.9999999999999 458.65H789.3499999999999Q863.9999999999999 458.65 863.9999999999999 533.3499999999999V618.65Q863.9999999999999 693.3499999999999 789.3499999999999 693.3499999999999zM704 298.7000000000001H789.35A106.65 106.65 0 0 0 896 192V106.7000000000001A106.65 106.65 0 0 0 789.35 0H704A106.65 106.65 0 0 0 597.35 106.7000000000001V192A106.65 106.65 0 0 0 704 298.7000000000001zM704 330.6500000000001H789.35Q928 330.65 928 192V106.65Q928 49.254 887.398 8.602Q846.798 -32 789.35 -32H704Q646.554 -32 605.952 8.602Q565.35 49.254 565.35 106.65V192Q565.35 330.65 704 330.65zM704 266.6500000000001Q629.35 266.6500000000001 629.35 192.0000000000001V106.6500000000001Q629.35 32 704 32H789.35Q864 32 864 106.65V192Q864 266.65 789.35 266.65z" />
    <glyph glyph-name="more-circle"
      unicode="&#xE01B;"
      horiz-adv-x="1024" d="M53.312 384C53.312 637.312 258.688 842.688 512 842.688C765.312 842.688 970.688 637.312 970.688 384C970.688 130.688 765.312 -74.688 512 -74.688C258.688 -74.688 53.312 130.688 53.312 384zM727.424 328.512C756.928 328.512 780.8 352.3839999999999 780.8 381.8879999999999C780.8 411.3279999999999 756.928 435.2 727.424 435.2C697.9839999999999 435.2 674.112 411.3279999999999 674.112 381.8879999999999C674.112 352.3839999999999 697.9839999999999 328.512 727.424 328.512zM567.424 381.8879999999999C567.424 411.3279999999999 543.552 435.2 514.112 435.2C484.672 435.2 460.8 411.3279999999999 460.8 381.8879999999999C460.8 352.3839999999999 484.672 328.512 514.112 328.512C543.552 328.512 567.424 352.3839999999999 567.424 381.8879999999999zM300.8 328.512C330.24 328.512 354.112 352.448 354.112 381.8879999999999C354.112 411.3279999999999 330.24 435.2 300.8 435.2C271.36 435.2 247.488 411.3279999999999 247.488 381.8879999999999C247.488 352.4479999999999 271.36 328.512 300.8 328.512z" />
    <glyph glyph-name="more-circle-1"
      unicode="&#x6D;&#x6F;&#x72;&#x65;&#x5F;&#x63;&#x69;&#x72;&#x63;&#x6C;&#x65;"
      horiz-adv-x="1024" d="M53.312 384C53.312 637.312 258.688 842.688 512 842.688C765.312 842.688 970.688 637.312 970.688 384C970.688 130.688 765.312 -74.688 512 -74.688C258.688 -74.688 53.312 130.688 53.312 384zM727.424 328.512C756.928 328.512 780.8 352.3839999999999 780.8 381.8879999999999C780.8 411.3279999999999 756.928 435.2 727.424 435.2C697.9839999999999 435.2 674.112 411.3279999999999 674.112 381.8879999999999C674.112 352.3839999999999 697.9839999999999 328.512 727.424 328.512zM567.424 381.8879999999999C567.424 411.3279999999999 543.552 435.2 514.112 435.2C484.672 435.2 460.8 411.3279999999999 460.8 381.8879999999999C460.8 352.3839999999999 484.672 328.512 514.112 328.512C543.552 328.512 567.424 352.3839999999999 567.424 381.8879999999999zM300.8 328.512C330.24 328.512 354.112 352.448 354.112 381.8879999999999C354.112 411.3279999999999 330.24 435.2 300.8 435.2C271.36 435.2 247.488 411.3279999999999 247.488 381.8879999999999C247.488 352.4479999999999 271.36 328.512 300.8 328.512z" />
    <glyph glyph-name="fill-close-circle"
      unicode="&#xE01C;"
      horiz-adv-x="1024" d="M512 810.667C276.907 810.667 85.333 619.0930000000001 85.333 384C85.333 148.9070000000001 276.9070000000001 -42.6669999999999 512 -42.6669999999999C747.093 -42.6669999999999 938.667 148.9070000000002 938.667 384.0000000000001C938.667 619.0930000000001 747.0929999999998 810.667 511.9999999999999 810.667zM655.36 285.8670000000001C667.7330000000001 273.4930000000001 667.7330000000001 253.0130000000001 655.36 240.6400000000001C648.96 234.2400000000001 640.8530000000001 231.2530000000002 632.7470000000001 231.2530000000002C624.6400000000001 231.2530000000002 616.5330000000001 234.2400000000001 610.133 240.6400000000001L512 338.773L413.867 240.64C407.4670000000001 234.24 399.36 231.253 391.2530000000001 231.253C383.1470000000001 231.253 375.04 234.2399999999999 368.6400000000001 240.6399999999999C356.2670000000001 253.0129999999999 356.2670000000001 273.4929999999998 368.6400000000001 285.8669999999999L466.773 384L368.6400000000001 482.133C356.2670000000001 494.507 356.2670000000001 514.987 368.6400000000001 527.3599999999999C381.0130000000001 539.733 401.4930000000001 539.733 413.867 527.3599999999999L512 429.227L610.133 527.3599999999999C622.5070000000001 539.733 642.9870000000001 539.733 655.36 527.3599999999999C667.7330000000001 514.987 667.7330000000001 494.5069999999999 655.36 482.133L557.227 384L655.36 285.867z" />
    <glyph glyph-name="fill-close-circle-1"
      unicode="&#x66;&#x69;&#x6C;&#x6C;&#x5F;&#x63;&#x6C;&#x6F;&#x73;&#x65;&#x5F;&#x63;&#x69;&#x72;&#x63;&#x6C;&#x65;"
      horiz-adv-x="1024" d="M512 810.667C276.907 810.667 85.333 619.0930000000001 85.333 384C85.333 148.9070000000001 276.9070000000001 -42.6669999999999 512 -42.6669999999999C747.093 -42.6669999999999 938.667 148.9070000000002 938.667 384.0000000000001C938.667 619.0930000000001 747.0929999999998 810.667 511.9999999999999 810.667zM655.36 285.8670000000001C667.7330000000001 273.4930000000001 667.7330000000001 253.0130000000001 655.36 240.6400000000001C648.96 234.2400000000001 640.8530000000001 231.2530000000002 632.7470000000001 231.2530000000002C624.6400000000001 231.2530000000002 616.5330000000001 234.2400000000001 610.133 240.6400000000001L512 338.773L413.867 240.64C407.4670000000001 234.24 399.36 231.253 391.2530000000001 231.253C383.1470000000001 231.253 375.04 234.2399999999999 368.6400000000001 240.6399999999999C356.2670000000001 253.0129999999999 356.2670000000001 273.4929999999998 368.6400000000001 285.8669999999999L466.773 384L368.6400000000001 482.133C356.2670000000001 494.507 356.2670000000001 514.987 368.6400000000001 527.3599999999999C381.0130000000001 539.733 401.4930000000001 539.733 413.867 527.3599999999999L512 429.227L610.133 527.3599999999999C622.5070000000001 539.733 642.9870000000001 539.733 655.36 527.3599999999999C667.7330000000001 514.987 667.7330000000001 494.5069999999999 655.36 482.133L557.227 384L655.36 285.867z" />
    <glyph glyph-name="fill-image"
      unicode="&#xE01D;"
      horiz-adv-x="1024" d="M53.333 597.3330000000001C53.333 732.8430000000001 163.157 842.667 298.6670000000001 842.667H725.3330000000001C860.8430000000001 842.667 970.6670000000001 732.8430000000001 970.6670000000001 597.3330000000001V170.667C970.6670000000001 35.157 860.8430000000002 -74.6669999999999 725.3330000000001 -74.6669999999999H298.667C163.157 -74.6669999999999 53.333 35.157 53.333 170.6670000000002zM298.6670000000001 778.667C198.5270000000001 778.667 117.333 697.472 117.333 597.3330000000001V170.667C117.333 70.527 198.528 -10.6669999999999 298.6670000000001 -10.6669999999999H725.3330000000001C825.4730000000001 -10.6669999999999 906.6670000000001 70.528 906.6670000000001 170.6670000000002V597.3330000000001C906.6670000000001 697.473 825.4720000000002 778.667 725.3330000000001 778.667zM85.333 597.3330000000001C85.333 715.136 180.863 810.667 298.6670000000001 810.667H725.3330000000001C843.1360000000001 810.667 938.6670000000001 715.1370000000001 938.6670000000001 597.3330000000001V170.667C938.6670000000001 139.6470000000001 932.0530000000002 110.1650000000001 920.1490000000002 83.5410000000001L935.295 189.7810000000001C937.3850000000002 204.417 931.7550000000002 219.0940000000001 920.362 228.5660000000001L736.555 381.78C706.048 407.21 661.163 405.163 633.088 377.088L420.224 164.18C400.214 144.213 367.787 144.213 347.776 164.18L301.996 210.005C275.456 236.545 233.6 240 203.051 218.197L124.545 162.091C113.325 154.071 106.668 141.141 106.668 127.361V84.524C106.668 81.537 106.966 78.55 107.606 75.692C93.356 104.279 85.334 136.535 85.334 170.669zM341.333 469.333C388.48 469.333 426.667 507.52 426.667 554.667C426.667 601.8130000000001 388.48 640 341.333 640C294.187 640 256 601.813 256 554.6669999999999C256 507.52 294.187 469.333 341.333 469.333zM820.8209999999999 -13.227L902.998 52.523C864.7679999999999 -4.864 799.4459999999999 -42.6669999999999 725.334 -42.6669999999999H298.667C224.469 -42.6669999999999 159.104 -4.7789999999999 120.875 52.6930000000001C121.472 52.1810000000002 122.069 51.6690000000001 122.667 51.2L202.795 -12.885C209.665 -18.389 218.027 -21.6319999999999 226.773 -22.187L551.5529999999999 -42.497C553.6429999999999 -42.6239999999999 555.6909999999999 -42.5809999999999 557.7809999999998 -42.4109999999999L797.6969999999999 -22.401C806.1449999999999 -21.718 814.2089999999998 -18.5179999999999 820.8219999999999 -13.228z" />
    <glyph glyph-name="fill-image-1"
      unicode="&#x66;&#x69;&#x6C;&#x6C;&#x5F;&#x69;&#x6D;&#x61;&#x67;&#x65;"
      horiz-adv-x="1024" d="M53.333 597.3330000000001C53.333 732.8430000000001 163.157 842.667 298.6670000000001 842.667H725.3330000000001C860.8430000000001 842.667 970.6670000000001 732.8430000000001 970.6670000000001 597.3330000000001V170.667C970.6670000000001 35.157 860.8430000000002 -74.6669999999999 725.3330000000001 -74.6669999999999H298.667C163.157 -74.6669999999999 53.333 35.157 53.333 170.6670000000002zM298.6670000000001 778.667C198.5270000000001 778.667 117.333 697.472 117.333 597.3330000000001V170.667C117.333 70.527 198.528 -10.6669999999999 298.6670000000001 -10.6669999999999H725.3330000000001C825.4730000000001 -10.6669999999999 906.6670000000001 70.528 906.6670000000001 170.6670000000002V597.3330000000001C906.6670000000001 697.473 825.4720000000002 778.667 725.3330000000001 778.667zM85.333 597.3330000000001C85.333 715.136 180.863 810.667 298.6670000000001 810.667H725.3330000000001C843.1360000000001 810.667 938.6670000000001 715.1370000000001 938.6670000000001 597.3330000000001V170.667C938.6670000000001 139.6470000000001 932.0530000000002 110.1650000000001 920.1490000000002 83.5410000000001L935.295 189.7810000000001C937.3850000000002 204.417 931.7550000000002 219.0940000000001 920.362 228.5660000000001L736.555 381.78C706.048 407.21 661.163 405.163 633.088 377.088L420.224 164.18C400.214 144.213 367.787 144.213 347.776 164.18L301.996 210.005C275.456 236.545 233.6 240 203.051 218.197L124.545 162.091C113.325 154.071 106.668 141.141 106.668 127.361V84.524C106.668 81.537 106.966 78.55 107.606 75.692C93.356 104.279 85.334 136.535 85.334 170.669zM341.333 469.333C388.48 469.333 426.667 507.52 426.667 554.667C426.667 601.8130000000001 388.48 640 341.333 640C294.187 640 256 601.813 256 554.6669999999999C256 507.52 294.187 469.333 341.333 469.333zM820.8209999999999 -13.227L902.998 52.523C864.7679999999999 -4.864 799.4459999999999 -42.6669999999999 725.334 -42.6669999999999H298.667C224.469 -42.6669999999999 159.104 -4.7789999999999 120.875 52.6930000000001C121.472 52.1810000000002 122.069 51.6690000000001 122.667 51.2L202.795 -12.885C209.665 -18.389 218.027 -21.6319999999999 226.773 -22.187L551.5529999999999 -42.497C553.6429999999999 -42.6239999999999 555.6909999999999 -42.5809999999999 557.7809999999998 -42.4109999999999L797.6969999999999 -22.401C806.1449999999999 -21.718 814.2089999999998 -18.5179999999999 820.8219999999999 -13.228z" />
  </font>
</defs>
</svg>
